<svg xmlns="http://www.w3.org/2000/svg" version="1.1" xmlns:xlink="http://www.w3.org/1999/xlink" xmlns:svgjs="http://svgjs.dev/svgjs" width="496.99" height="496.99"><svg id="SvgjsSvg1070" data-name="Layer 1" xmlns="http://www.w3.org/2000/svg" xmlns:xlink="http://www.w3.org/1999/xlink" viewBox="0 0 496.99 496.99">
  <defs>
    <style>
      .cls-1 {
        fill: none;
      }

      .cls-2 {
        fill: url(#linear-gradient-5);
      }

      .cls-3 {
        fill: url(#linear-gradient-4);
      }

      .cls-4 {
        fill: url(#linear-gradient-3);
      }

      .cls-5 {
        fill: url(#linear-gradient-2);
      }

      .cls-6 {
        fill: url(#linear-gradient);
      }

      .cls-7 {
        fill: #ffefd9;
      }

      .cls-8 {
        fill: #f78f2f;
      }

      .cls-9 {
        fill: #77ac42;
      }
    </style>
    <linearGradient id="SvgjsLinearGradient1069" x1="1122.27" y1="-1140.85" x2="1122.27" y2="-137.38" gradientTransform="translate(-179.52 9.8) scale(.38 -.38)" gradientUnits="userSpaceOnUse">
      <stop offset="0" stop-color="#fff1d2"></stop>
      <stop offset=".04" stop-color="#feeec5"></stop>
      <stop offset=".09" stop-color="#fee7a4"></stop>
      <stop offset=".17" stop-color="#fddb6f"></stop>
      <stop offset=".26" stop-color="#fccb26"></stop>
      <stop offset=".26" stop-color="#fccb23"></stop>
      <stop offset=".31" stop-color="#eeb825"></stop>
      <stop offset=".38" stop-color="#dda127"></stop>
      <stop offset=".44" stop-color="#d39329"></stop>
      <stop offset=".5" stop-color="#d08f2a"></stop>
      <stop offset=".53" stop-color="#d79e43"></stop>
      <stop offset=".6" stop-color="#e5ba71"></stop>
      <stop offset=".66" stop-color="#f0d095"></stop>
      <stop offset=".71" stop-color="#f8e0af"></stop>
      <stop offset=".76" stop-color="#fde9bf"></stop>
      <stop offset=".8" stop-color="#ffedc5"></stop>
      <stop offset=".81" stop-color="#feebbe"></stop>
      <stop offset=".82" stop-color="#fee295"></stop>
      <stop offset=".84" stop-color="#fddb71"></stop>
      <stop offset=".86" stop-color="#fcd555"></stop>
      <stop offset=".88" stop-color="#fcd03e"></stop>
      <stop offset=".91" stop-color="#fccd2f"></stop>
      <stop offset=".93" stop-color="#fccb25"></stop>
      <stop offset=".97" stop-color="#fccb23"></stop>
    </linearGradient>
    <linearGradient id="SvgjsLinearGradient1068" x1="1101.88" y1="-409.77" x2="1101.88" y2="-920.59" gradientTransform="translate(-179.52 9.8) scale(.38 -.38)" gradientUnits="userSpaceOnUse">
      <stop offset=".09" stop-color="#f99f32"></stop>
      <stop offset=".1" stop-color="#f89d31"></stop>
      <stop offset=".23" stop-color="#f7922f"></stop>
      <stop offset=".37" stop-color="#f78f2f"></stop>
      <stop offset=".52" stop-color="#f7922e"></stop>
      <stop offset=".66" stop-color="#f89d2c"></stop>
      <stop offset=".79" stop-color="#f9af28"></stop>
      <stop offset=".91" stop-color="#fbc823"></stop>
      <stop offset=".92" stop-color="#fccb23"></stop>
    </linearGradient>
    <linearGradient id="SvgjsLinearGradient1067" x1="1062.39" y1="-388.27" x2="1062.39" y2="-914.41" gradientTransform="translate(-179.52 9.8) scale(.38 -.38)" gradientUnits="userSpaceOnUse">
      <stop offset=".05" stop-color="#f99f32"></stop>
      <stop offset=".06" stop-color="#f89a31"></stop>
      <stop offset=".11" stop-color="#f7912f"></stop>
      <stop offset=".17" stop-color="#f78f2f"></stop>
      <stop offset=".38" stop-color="#f7922e"></stop>
      <stop offset=".57" stop-color="#f89d2c"></stop>
      <stop offset=".74" stop-color="#f9af28"></stop>
      <stop offset=".91" stop-color="#fbc823"></stop>
      <stop offset=".92" stop-color="#fccb23"></stop>
    </linearGradient>
    <linearGradient id="SvgjsLinearGradient1066" x1="1294.04" y1="-748.78" x2="1294.04" y2="-1023.56" gradientTransform="translate(-179.52 9.8) scale(.38 -.38)" gradientUnits="userSpaceOnUse">
      <stop offset=".2" stop-color="#f78f2f"></stop>
      <stop offset=".39" stop-color="#f89d2c"></stop>
      <stop offset=".74" stop-color="#fbc224"></stop>
      <stop offset=".81" stop-color="#fccb23"></stop>
    </linearGradient>
    <linearGradient id="SvgjsLinearGradient1065" x1="719.55" y1="-645.85" x2="2023.98" y2="-645.85" gradientTransform="translate(2.43 771.13) rotate(-90) scale(.38 -.38)" gradientUnits="userSpaceOnUse">
      <stop offset=".05" stop-color="#c9d37c"></stop>
      <stop offset=".07" stop-color="#bfce75"></stop>
      <stop offset=".13" stop-color="#a4c162"></stop>
      <stop offset=".2" stop-color="#90b854"></stop>
      <stop offset=".28" stop-color="#82b149"></stop>
      <stop offset=".38" stop-color="#79ad43"></stop>
      <stop offset=".54" stop-color="#77ac42"></stop>
      <stop offset=".67" stop-color="#79ad43"></stop>
      <stop offset=".76" stop-color="#82b14a"></stop>
      <stop offset=".84" stop-color="#91b855"></stop>
      <stop offset=".91" stop-color="#a7c364"></stop>
      <stop offset=".98" stop-color="#c3d077"></stop>
      <stop offset=".99" stop-color="#c9d37c"></stop>
    </linearGradient>
  </defs>
  <circle class="cls-9" cx="248.49" cy="465.13" r="14.93"></circle>
  <g>
    <circle class="cls-9" cx="248.49" cy="465.13" r="11.38"></circle>
    <path class="cls-7" d="M248.49,477.08c-6.59,0-11.96-5.37-11.96-11.96s5.37-11.96,11.96-11.96,11.96,5.37,11.96,11.96-5.37,11.96-11.96,11.96ZM248.49,454.33c-5.95,0-10.8,4.84-10.8,10.8s4.84,10.8,10.8,10.8,10.8-4.84,10.8-10.8-4.84-10.8-10.8-10.8Z"></path>
  </g>
  <path class="cls-6" d="M420.7,330.55c11.88-24.88,18.53-52.71,18.53-82.06,0-105.4-85.75-191.16-191.16-191.16S56.91,143.09,56.91,248.49s85.75,191.16,191.16,191.16c75.72,0,141.29-44.25,172.23-108.25.33-.13.55-.21.64-.25l-.24-.6h0ZM233.23,66.34c-8.87,5.52-26.81,19.86-43.11,39.31-.26.31-.54.65-.81.98-4.93-.81-11.24-2.36-17.7-4.34,23.56-20.4,46.49-30.75,55.78-34.94.48-.22.92-.41,1.31-.59,1.51-.16,3.02-.3,4.53-.42h0ZM367.6,154.49c4.49,8.19,12.59,24.88,18.13,47.25-8.8,2.32-19.14,4.56-31.02,6.42-3.93-20.52-9.78-37.16-14.2-47.89,10.47-1.5,19.5-3.56,27.09-5.78h0ZM387.87,211.34c.1.49.2.97.29,1.46,3.46,18.25,4.44,37.16,2.91,55.29-10.72,2.07-22.03,3.64-32.55,4.83,2.24-23.33.09-42.2-2.05-55.12,11.99-1.88,22.45-4.13,31.4-6.47ZM334.21,111.05c10.81,10.59,20.44,22.48,28.19,34.71-6.99,1.94-16.57,3.85-25.99,5.14l-.36-.66c-5.95-12.3-13.12-24.17-21.01-34.87,5.56-1.19,12-2.96,18.38-5.07.26.25.52.5.79.76h0ZM343.39,333.48c6.44-15.06,11.23-32.49,13.81-49.96,12.76-1.41,23.67-3.16,32.69-4.94-.02.17-.04.34-.07.51-2.66,18.5-8.03,36.8-15.64,53.57-9.47,1.46-20.17,2.58-31.75,2.95.32-.71.64-1.41.95-2.13h0ZM140.21,282.66l.03-.72c3.35,23.8,10.06,42.09,14.04,51.38.33.78.68,1.52,1.01,2.28-11.94-.4-22.94-1.58-32.62-3.11-7.64-16.78-13.04-35.11-15.72-53.64,9.92,1.82,21.11,3.26,33.26,3.8ZM160.04,345.52c9.96,19.38,21,32.84,27.75,40.9-11.83-1.12-22.47-2.46-31.69-3.83-14.4-15.88-23.42-30.63-28.13-39.4,9.69,1.27,20.47,2.16,32.07,2.32h0ZM139.16,272.79c-12.25-.63-23.52-2.22-33.39-4.17-1.64-18.42-.7-37.66,2.83-56.22.09-.46.18-.91.27-1.36,9.14,2.43,19.91,4.78,32.32,6.73-2.14,12.92-4.26,31.76-2.03,55.03h0ZM142.93,208.12c-12.3-1.93-22.95-4.28-31.93-6.69,5.53-22.37,13.63-39.07,18.13-47.29,7.76,2.33,17.09,4.51,27.99,6.09-4.42,10.75-10.26,27.39-14.18,47.89ZM161.61,150.08l-.39.85s-19.67-3.44-26.92-5.51c7.76-12.25,17.41-24.17,28.24-34.78.26-.25.52-.5.77-.74,6.65,2.24,13.41,4.13,19.24,5.4-6.5,8.82-14.03,20.48-20.94,34.78h0ZM390.94,329.54c7.64-17.02,12.84-35.73,15.18-54.64,12.72-3.29,20.49-6.33,23.77-7.74-2,19.66-7.15,38.41-14.9,55.74-3.85,1.34-12.26,4.05-24.04,6.64h0ZM399.86,197.59c-4.75-16.54-11.74-32.58-20.44-47.04,9.31-3.53,15.08-6.81,17.34-8.2,10.2,14.25,18.41,30.02,24.21,46.9-3.46,1.7-10.51,4.87-21.11,8.34ZM334.53,99.57c-20.76-16.54-41.42-26.21-54.84-31.09,24.29,4.26,46.96,13.32,66.96,26.18-3.62,1.7-7.78,3.36-12.12,4.91h0ZM267.07,66.72c.62.29,1.37.63,2.28,1.04,9.28,4.19,32.19,14.52,55.73,34.9-6.18,1.85-12.15,3.29-16.83,4.03-.24-.29-.47-.59-.71-.88-16.33-19.48-34.28-33.83-43.15-39.33.89.08,1.78.16,2.67.25h0ZM162.23,99.16c-4.33-1.58-8.44-3.27-11.98-4.98,19.58-12.45,41.67-21.29,65.34-25.55-13.43,5.04-33.35,14.59-53.37,30.53h0ZM96.88,197.21c-11.79-3.93-18.93-7.41-21.44-8.71,6.31-18.12,15.4-34.94,26.75-49.97l-2.13,3.13c.43.29,6.18,4.14,17.28,8.46-8.72,14.48-15.71,30.54-20.47,47.09h0ZM90.73,275.31c2.39,18.69,7.58,37.16,15.15,53.98-14.34-3.22-23.46-6.55-25.05-7.15-7.51-16.99-12.52-35.34-14.52-54.56,5.16,2.01,13.54,4.95,24.43,7.72h0ZM111.42,340.52c7.58,14.23,16.95,27.4,27.96,39.33-14.2-2.57-22.3-4.68-22.56-4.75l-.57-.15c-11.55-12.03-21.47-25.64-29.41-40.46,5.91,1.79,14.27,4.03,24.57,6.03h0ZM150.45,390.94c18.05,16.63,36.79,27.66,50.46,34.13-26.62-7.12-50.86-20.1-71.24-37.48,7.06,1.24,13.99,2.36,20.78,3.35h0ZM215.29,428.3c-9.05-4.76-27.79-15.22-47.45-33.73-.53-.5-1.03-1-1.54-1.49,10.4,1.29,20.43,2.32,30.01,3.11,16.15,17.67,31.63,30.12,38.45,34.58-6.59-.48-13.09-1.3-19.47-2.46h0ZM233.94,426.59c-5.36-5.43-15.19-15.4-26.25-29.57,5.31.35,10.46.64,15.45.86,4.56,9.79,10.92,22.14,18.42,33.24-1.14-.04-2.29-.08-3.43-.14-.69-.83-1.98-2.15-4.19-4.39h0ZM272.37,398.33c6.42-.19,12.22-.45,17.31-.76-10.94,13.96-20.64,23.8-25.95,29.18-1.98,2.01-3.23,3.28-3.96,4.12-1.8.11-3.6.2-5.41.27,7.96-13.32,13.91-24.56,18.01-32.8h0ZM300.97,396.77c9.14-.76,14.19-1.48,14.38-1.51l1.2-.18v-9.79l-1.56.17c-1.54.17-3.07.34-4.6.5,6.81-8.15,17.59-21.47,27.32-40.45,11.26-.15,21.75-.98,31.22-2.19-5.82,10.88-18.45,31.33-40.02,51.65-18.6,17.51-36.38,27.82-45.91,32.91-6.43,1.25-12.97,2.16-19.62,2.72,6.98-4.67,21.93-16.78,37.59-33.84h0ZM347.65,390.11c.6.05,2.9.21,6.14.21,2.84,0,6.4-.13,10.12-.57-18.97,15.58-41.12,27.42-65.31,34.39,13.73-6.78,31.77-17.81,49.05-34.04h0ZM430.7,255.03l-.37.23c-5.74,3.64-13.88,6.67-23.22,9.18,1.26-18.85-.38-38.48-4.78-57.31,10.22-3.31,17.4-6.41,21.6-8.41,4.49,15.83,6.89,32.53,6.89,49.78,0,2.19-.05,4.36-.13,6.54h0ZM390.8,134.48c-2.51,1.46-8.12,4.44-16.79,7.59-8.8-12.94-19.18-24.75-30.92-35.25,4.75-1.86,9.16-3.84,12.76-5.83,13.08,9.58,24.84,20.85,34.96,33.5h0ZM259.35,66.09c.92,1.02,2.64,2.58,5.5,5.14,12.89,11.54,43.06,38.57,60.4,81.26,9.05,22.28,12.65,44.17,14.56,58.71-5.65.69-16.62,1.76-28.24,1.48l-1.64-.04,7.3,8.01h.31c.13,0,12.16-.01,23.31-1.13,1.58,13.02,3.64,31.62,1.26,55.02-15.52,1.33-26.7,1.73-27.01,1.75l-2.12.07,4.64,9.9.92-.03c7.86-.26,15.26-.67,22.23-1.19-2.38,15.58-6.49,31.12-12.27,46.2-9.61,25.1-21.84,43.61-30.91,55.93-6.96.57-13.81,1.02-20.53,1.34,1.58-3.46,2.36-5.36,2.38-5.42l.16-.4-9.04-1.64-.08.31c-.65,2.44-1.38,4.96-2.14,7.51-14.34.49-28.03.45-40.91.04-1-3.32-2.02-6.8-3.03-10.44l-.08-.3-8.99,1.43.15.4c.04.1,1.28,3.4,3.5,8.59-6.42-.29-12.62-.66-18.56-1.1-9.1-12.31-21.52-30.98-31.25-56.4-6.03-15.75-10.27-31.98-12.59-48.24-4.04-28.27-1.36-50.29.41-64.85,1.68-13.79,4.8-39.47,15.43-65.65,17.34-42.69,47.52-69.72,60.4-81.26,2.81-2.52,4.51-4.06,5.44-5.08,3.25-.17,6.52-.27,9.81-.27,3.79,0,7.55.13,11.28.36h0ZM141.09,100.41c3.5,2.02,7.85,4.05,12.62,5.96-11.75,10.51-22.15,22.33-30.95,35.28-9.83-3.66-15.47-7.02-16.84-7.88,10.19-12.61,22.02-23.83,35.17-33.35h0ZM72.42,197.96c3.73,1.86,11.04,5.17,21.99,8.79-4.46,19.1-6.08,39.02-4.71,58.1-12.83-3.49-21.46-7.01-24.19-8.19-.12-2.71-.19-5.44-.19-8.17,0-17.52,2.48-34.47,7.11-50.53h0ZM242.59,431.16c-1.32-2.99-6.33-14.69-12.26-32.99,8.39.29,16.31.42,23.63.42,3.94,0,7.72-.04,11.33-.1-4.91,14.8-10.39,28.66-12,32.68-1.73.05-3.47.08-5.22.08-1.83,0-3.66-.03-5.47-.09h0ZM378.72,376.15c-3.57,1.55-11.37,4.22-19.93,2.58,10.46-11.58,19.37-24.32,26.65-38.02,9.61-1.82,17.58-3.87,23.53-5.6-8.15,15.08-18.36,28.88-30.24,41.04h0ZM311.59,271.19c.05,0,.1-.02.14-.04.09-.04.29-.19.17-.56l2.17-34.81v-.14s-10.7-12.29-10.7-12.29l.1,1.09c1.2,12.46-1.17,31.77-1.2,31.97v.12s.05.1.05.1c7.76,13.23,8.84,14.57,9.26,14.57h0Z"></path>
  <g>
    <path class="cls-1" d="M176.12,196.47c.44.89.31,2.21,2.07,1.91,2.51-.44,3.92.55,4.75,2.93.55,1.57.64,3.21.65,4.86,0,2.55.26,5.06.75,7.59.48,2.47,1.16,5.01.75,7.58-.35,2.27-.28,4.55-.42,6.82-.28,4.4-.9,8.71-3.67,12.39-.65.87-1.1,1.9-1.68,2.82-1.33,2.09-1.81,4.35-1.38,7.13-.29,2.66.88,5.42,1.48,8.26,1.51,7.15,3.71,14.08,7.21,20.54.45.84.93,1.62,2.02,1.56.94-.05,1.41-.74,1.78-1.5.12-.25.24-.5.33-.75.93-2.67,1.99-5.3,2.75-8.02,2.45-8.67,6.2-16.77,11.01-24.33,5.48-8.62,11.32-17,18.29-24.52.74-.79.74-1.41-.29-1.91-1.48-.72-2.94-1.46-4.29-2.41-1.76-1.23-1.92-1.21-3.3.5-1.49,1.85-2.95,3.72-4.36,5.62-.72.97-1.41.98-2.28.24-1.11-.96-1.23-1.49-.29-2.78,1.4-1.91,2.84-3.8,4.33-5.65.73-.91.67-1.58-.24-2.3-1-.79-1.93-1.67-2.89-2.52-1.11-.98-2.16-.91-3.16.23-4.98,5.71-10.1,11.29-15.42,16.68-1.33,1.34-1.54,1.26-2.82-.03-1.05-1.06-.75-1.8.14-2.76,5.16-5.54,10.26-11.14,15.4-16.7,1.67-1.81,1.68-1.78.01-3.71-1.07-1.24-2.13-2.5-3.17-3.77-1.43-1.75-1.44-1.73-3.19-.36-2.51,1.97-5.07,3.88-7.6,5.82-.83.64-1.55.76-2.38-.11-1.52-1.59-1.54-2.52.37-3.66,2.82-1.7,5.17-4.06,8-5.74,1-.59,1.1-1.3.51-2.28-.89-1.48-1.75-2.99-2.53-4.54-.54-1.07-1.21-1.1-2.23-.7-4.66,1.86-9.34,3.66-14.02,5.46-1.04.4-1.51.99-.98,2.08h0Z"></path>
    <path class="cls-1" d="M161.83,167.9c3.24,3.11,6.28,6.41,8.23,10.49,1.57,3.29,3.02,6.64,4.13,10.12.67,2.08.66,2.06,2.59,1.24,2.94-1.24,5.89-2.46,8.84-3.67,1.27-.52,2.55-.99,3.83-1.48,1.13-.44,1.51-1.11,1.04-2.35-.55-1.44-.91-2.96-1.33-4.45-.54-1.93-.54-1.99-2.62-1.81-3.45.3-6.89.68-10.34,1.02-.94.09-1.89.12-2.27-.99-.34-1,.18-1.77.86-2.43.55-.53,1.24-.8,2-.75,2.57.16,5.08-.42,7.63-.54,3.59-.18,3.59-.2,3.32-3.79-.18-2.35-.23-2.42-2.57-2.5-7.56-.24-15.12-.47-22.69-.7,0-.06,0-.11,0-.17h-1.09c-.52,0-1.18-.21-1.37.5-.13.47.26.84.59,1.16.39.38.83.72,1.22,1.1h0Z"></path>
    <path class="cls-1" d="M284.39,281.68c-.03-.12-.1-.22-.15-.34-.05.06-.1.11-.17.18.06.1.12.21.17.32.05-.06.16-.13.15-.17h0Z"></path>
    <path class="cls-1" d="M287.58,310.95c6.22,3.99,12,8.61,17.91,13.04,2.04,1.53,4.08,3.07,6.13,4.59.29.21.66.4.99.12.37-.31.14-.68-.04-.97-1.28-2-2.32-4.13-3.81-6-2.73-3.42-5.28-6.98-7.62-10.69-2.05-3.24-4.22-6.4-6.34-9.59-.45-.67-.81-1.46-1.84-1.54-.21.09-.5.14-.7.31-3.23,2.66-7.01,4.22-10.96,5.43-.42.13-.93.25-1.01.78-.09.6.46.71.84.92,2.15,1.2,4.39,2.26,6.45,3.59h0Z"></path>
    <path class="cls-1" d="M226.81,213.97c.77.39,1.55.75,2.19-.13.64-.88.07-1.51-.54-2.13-1.21-1.24-2.49-2.43-3.56-3.78-4.9-6.12-8.29-13.07-10.92-20.41-1.63-4.57-2.65-9.29-2.94-14.15-.07-1.16-1.44-2.82.11-3.35,1.22-.41,1.77,1.54,2.41,2.58,4.64,7.5,9.95,14.34,17.34,19.45,5.76,3.99,11.8,6.49,18.93,5.56,1.45-.19,2.91-.3,4.34-.58,6.62-1.27,12.57-3.88,17.05-9.1,3.1-3.61,5.72-7.56,7.85-11.82.94-1.88,1.87-3.76,2.84-5.62.34-.64.78-1.39,1.66-1.11.83.26.89,1.08.84,1.83-.17,2.46-.3,4.92-.55,7.36-.57,5.63-1.49,11.19-3.4,16.54-2.85,7.94-7.42,14.6-14.56,19.32-.3.2-.62.4-.87.66-.33.36-.42.8-.16,1.26.25.44.64.71,1.12.61.53-.12,1.02-.37,1.52-.6,6.48-2.92,12.34-6.78,17.16-12,9.74-10.57,14.81-23.05,14.84-37.49.07-4.88-.5-9.67-1.84-14.35-2.38-8.38-6.08-16.11-12.48-22.15-12.36-11.68-27.31-15.64-43.93-13.76-10.18,1.16-19.38,4.99-27.56,11.19-7.14,5.41-12.64,12.03-15.56,20.66-3,8.86-3.63,17.93-1.76,27,3.68,17.84,14.33,30.38,30.44,38.49h0ZM226.19,147.28c4.57-7.93,11.59-12.69,20.86-13.11,9.39-.43,16.74,3.75,22.08,11.4,3.5,5.02,4.98,10.69,4.99,16.77-.03,11.34-6.54,21.69-16.32,25.79-13.46,5.63-26.85-1.34-32.38-12.55-4.7-9.52-4.53-19.12.76-28.31h0Z"></path>
    <path class="cls-7" d="M318.8,338.46c-.3-.21-.59-.44-.87-.66-3.55-2.72-7.25-5.23-10.85-7.88-7.86-5.8-16.03-11.14-24.22-16.47-4.74-3.09-9.57-6.03-14.28-9.16-3.2-2.12-3.26-3.12-.84-6.04,7.59-9.17,11.85-19.57,11.72-31.62-.07-6.54-1.25-12.87-3.1-19.1-3.04-10.28-9.5-18.11-17.53-24.92-5.86-4.97-12.42-5.85-19.49-3.89-8.64,2.4-15.6,7.35-20.86,14.64-1.28,1.78-2.41,3.66-3.69,5.44-8.36,11.54-14.54,24.22-19.72,37.43-1.2,3.05-2.06,6.26-3.91,9.03-1.71,2.55-3.98,2.58-5.7.06-.87-1.28-1.62-2.65-2.25-4.06-2.44-5.51-4.52-11.17-6.17-16.97-1-3.5-1.58-7.11-2.53-10.63-1.98-7.35-1.99-7.31,2.45-13.56,3.25-4.58,4.95-9.69,5-15.36.05-6.49-.99-12.91-.97-19.39,0-.45-.1-.91-.23-1.34-.9-2.98-3.09-3.56-5.31-1.39-2.21,2.15-3.73,4.76-4.5,7.71-.44,1.69-1.2,2.92-2.61,3.97-3.46,2.56-5.22,6.02-4.97,10.4.04.64.02,1.28,0,1.92-.02.69-.28,1.28-1.02,1.43-.97.19-1.24-.57-1.49-1.26-.35-.98-.26-1.98-.06-2.98.79-4.01,2.05-7.78,5.34-10.52,1.3-1.08,1.84-2.4,1.62-4.11-.22-1.68.31-3.25,1.01-4.76.35-.76.66-1.5.47-2.36-.37-1.71-.11-3.46-.26-5.19-.32-3.73-.97-7.41-2.35-10.9-1.7-4.28-4.29-8.06-7.13-11.63-1.86-2.34-3.76-4.71-6.25-6.49-1.7-1.21-2.21-1.26-3.76.2-1.4,1.32-2.61,2.82-3.66,4.42-5.59,8.58-8.92,17.91-9.19,28.23-.18,6.95.57,13.83,1.53,20.69.84,5.98,3.24,11.17,7.34,15.57,1.68,1.81,3.61,3.39,5.16,5.3,3.36,4.12,8.3,7.41,7.62,13.78,1.38,6.03,2.18,12.15,4.27,18.06,2.29,6.47,4.48,12.94,8.45,18.6,4.13,5.89,9.51,10.31,16.34,12.74,4.11,1.46,6.04.43,7.62-3.7,1.37-3.58,2.61-7.21,4.05-10.76,2.32-5.74,4.35-11.64,8.41-16.52,1.87-2.24,3.61-4.6,5.56-6.76,2.2-2.43,4.32-5.04,7.03-6.89,6.08-4.16,12.79-6.52,20.3-6.34,11.16.26,19.44,8.97,19.6,19.5.05,3.04-.39,6.01-.81,8.97-.57,3.99-1.66,7.87-4.07,11.21-2.89,4.01-6.67,6.86-11.66,7.42-3.51.4-7.15.48-10.57-.74-2.02-.72-3.3-.02-4.42,1.58-3.51,5-7.16,9.91-10.39,15.12-1.28,2.06-.92,2.73,1.52,2.77,3.1.04,6.21.01,8.04.01,11.51-.14,21.68.79,31.86,1.62,3.27.27,6.56.57,9.76,1.22,8.36,1.71,16.32,4.62,23.89,8.54,5.1,2.65,9.47,6.27,12.51,11.19,3.68,5.96-.14,14.04-7.05,15.21-4.08.7-8.19.6-12.28.18-9.07-.91-17.98-2.89-26.96-4.36-6.87-1.12-13.77-1.69-20.69-1.79-9.87-.15-19.65.96-29.39,2.57-7.37,1.22-14.83,1.9-22.06,3.89-1.05.29-2.14.52-3.22.58-6.01.32-12.02.34-17.99-.61-4.99-.79-8.79-3.36-11.57-7.52-1.62-2.42-1.75-4.91-.32-7.48,1.21-2.18,2.71-4.13,4.59-5.75,4.66-4.02,9.73-7.4,15.53-9.58.59-.22,1.36-.4,1.25-1.21-.09-.67-.77-.7-1.32-.64-4.7.5-9.44.72-14.06,1.95-3.98,1.06-7.76,2.68-11.61,4.07-5.84,2.11-10.9,5.36-15.01,10.15-5.26,6.13-6.32,17.74.93,23.45.71.56,1.34,1.24,2.06,1.8,6.36,5.01,13.68,7.95,21.43,9.96,2.83.73,5.72,1.09,8.61,1.49,5.61.76,11.28,1.39,16.91,1.06,6.72-.4,13.43-1.37,20.02-2.79,7.41-1.59,14.85-2.86,22.45-3.06,2.73-.07,5.47-.27,8.18-.65,4.74-.68,9.48-.51,14.21-.21,7.65.49,15.1,2.44,22.68,3.45,4.06.54,8.09,1.39,12.17,1.75,8.46.75,16.75-.6,24.88-2.83,4.16-1.14,8-3.07,10.68-6.75.75-1.02,1.13-2.03,1.05-3.28-.43-6.88.47-13.67,1.79-20.39.61-3.1-.14-5.34-2.65-7.11h0ZM319.24,344.55c-1.16,7.1-2.23,14.23-1.78,21.48.07,1.1-.36,1.92-1.07,2.7-1.75,1.93-3.79,3.38-6.26,4.28-5.44,1.99-11.08,2.88-16.79,3.62-6.43.83-12.69.18-18.97-1.3-3.27-.77-6.7-.78-10.02-1.38-7-1.25-14.03-2.34-21.13-2.66-3.44-.16-6.92.25-10.37.56-1.45.13-2.9.37-4.36.39-9.44.11-18.64,1.88-27.87,3.63-6.17,1.17-12.38,2.37-18.69,2.4-5.27.02-10.51-.49-15.76-1.25-4.26-.62-8.46-1.34-12.55-2.62-6.14-1.91-11.85-4.7-16.9-8.78-8.21-6.62-6.24-16.95-1.04-22.55,3.17-3.41,6.9-6.04,11.18-7.72,5.93-2.32,11.79-4.92,18.12-6.1.44-.08.89-.19,1.34-.25.16-.02.42.05.49.17.15.25.05.54-.18.69-.46.3-.95.54-1.43.81-3.53,1.95-6.81,4.24-9.67,7.12-1.3,1.31-2.38,2.79-3.24,4.39-1.78,3.32-1.74,6.63.27,9.87,2.69,4.35,6.57,7.1,11.51,8.18,7.1,1.54,14.32,1.58,21.52.9,2.42-.23,4.79-1.11,7.18-1.68,3.02-.72,6.08-1.14,9.16-1.52,3.79-.47,7.55-1.21,11.35-1.72,9.13-1.23,18.29-2.24,27.52-1.91,10.22.37,20.33,1.7,30.32,3.89,2.76.61,5.59.71,8.37,1.25,5.11.98,10.29,1.49,15.51,1.14,1.9-.13,3.86-.04,5.68-.69,6.64-2.35,11.65-11.58,6.07-19.17-3.4-4.63-7.73-8.3-12.84-10.88-7.75-3.91-15.76-7.24-24.38-8.74-4.4-.76-8.83-1.43-13.28-1.7-4.36-.27-8.73-.63-13.1-.83-4.28-.19-8.56-.4-12.85-.43-2.83,0-5.66.03-8.49-.01-1.46-.02-1.65-.37-.81-1.61,2.84-4.14,5.74-8.24,8.59-12.36.91-1.31,1.92-1.49,3.52-1.09,5.12,1.28,10.28,1.61,15.24-.73,6.26-2.95,10.08-8.01,11.93-14.54,1.32-4.67,1.94-9.47,1.78-14.34-.27-8.09-4.14-14.04-11.01-18.05-6.95-4.06-14.28-3.73-21.71-1.48-3.44,1.04-6.54,2.79-9.61,4.58-1.18.69-2.23,1.56-3.22,2.53-4.78,4.67-9.08,9.75-12.91,15.22-3.43,4.91-5.22,10.61-7.36,16.13-1.22,3.15-2.41,6.31-3.68,9.43-.76,1.88-1.64,2.32-3.65,1.86-1.15-.27-2.34-.57-3.37-1.13-4.75-2.61-9.06-5.77-12.26-10.27-3.92-5.5-6.13-11.74-8.35-18.05-2.02-5.73-2.93-11.65-4.23-17.51-.25-1.14-.2-2.36-.23-3.54-.05-2.3-.99-4.1-2.46-5.89-3.71-4.53-8.15-8.36-11.89-12.84-3.38-4.05-5.09-8.74-5.87-13.92-.84-5.61-1-11.26-1.37-16.89-.36-5.46.34-10.91,2.22-16.16,1.7-4.73,3.42-9.44,6.34-13.6.84-1.19,1.71-2.37,2.69-3.44,1.24-1.35,1.54-1.33,2.93-.1,2.96,2.62,5.34,5.73,7.57,8.97,3.99,5.8,6.05,12.19,6.21,19.24.06,2.55.29,5.07-.93,7.45-.38.74-.48,1.61-.34,2.42.35,2.06-.65,3.41-2.05,4.75-3.5,3.35-4.81,7.69-5.03,12.35-.18,3.94,1.95,5.57,5.74,4.71,1.14-.26,1.79-.87,1.51-2.14-.06-.27-.12-.54-.16-.81-.75-5.29.93-9.54,5.47-12.49,1.26-.82,1.86-1.82,2.06-3.31.37-2.79,1.76-5.15,3.59-7.25.3-.34.62-.7,1.15-.58.63.14.83.65.93,1.21.05.27.07.54.07.82.08,6.57.78,13.1.71,19.68-.04,4.06-1,7.73-3,11.21-1.1,1.9-2.36,3.69-3.61,5.48-1.69,2.42-2.38,5.04-1.56,8.02,2.09,7.64,3.25,15.53,6.22,22.94,1.6,3.98,3.02,8.02,5.07,11.81.67,1.23,1.52,2.28,2.56,3.18,2.19,1.88,4.22,1.78,6.33-.15,1.96-1.79,3.08-4.12,3.89-6.52,3.75-11.12,8.99-21.53,14.67-31.75,2.18-3.91,4.9-7.48,7.38-11.2,1.01-1.52,2-3.05,3.12-4.5,4.93-6.4,11.19-10.91,19.01-13.1,6.99-1.96,13.27-.8,18.88,4.08,7.84,6.82,13.59,14.89,16.4,25.03,2.28,8.24,2.63,16.6,1.78,24.97-.63,6.26-3.54,11.83-6.88,17.13-1.42,2.25-3.19,4.22-4.76,6.34-1.84,2.49-1.75,3.69.43,5.97,1.73,1.8,3.86,3.05,5.96,4.34,9.17,5.64,18.23,11.46,27.03,17.66,6.41,4.51,12.95,8.86,19.07,13.79,1.54,1.25,2.03,2.45,1.71,4.45h0Z"></path>
    <path class="cls-7" d="M337.22,336.35c-3.95-4.18-7.76-8.47-10.56-13.56-1.63-2.95-3.45-5.8-5.18-8.69-4.36-7.28-8.42-14.72-12.12-22.36-3.14-6.49-5.56-13.29-8.39-19.91-1.75-4.1-3.62-8.18-4.9-12.47-.2-.66-.34-1.62-1.34-1.33-.76.22-.45,1.08-.47,1.68-.14,5.4-1.15,10.67-2.38,15.91-2.06,8.77-6.54,15.74-14.7,20.04-1.28.67-2.5,1.5-3.48,2.63-.71.82-1.72,1.59-1.13,2.83.5,1.07,1.57,1.51,2.7,1.61.81.07,1.66.06,2.45-.12,1.42-.31,2.85-.68,4.21-1.19,4.03-1.5,7.83-3.46,11.28-6.07,1.71-1.29,2.01-1.22,3.15.59.2.31.35.64.54.95,6.16,10.24,12.35,20.46,18.84,30.49,2.68,4.14,6.16,7.68,8.86,11.81,1.09,1.66,1.43,2.96.62,4.97-1.76,4.37-3.56,8.79-3.44,13.69.15,5.97,1.43,11.57,5.12,16.43.5.66,1,1.28.64,2.22-1.48,3.82-1.48,7.84-1.5,12.45-.16,3.06.47,6.67.62,10.32.12,2.89,2.16,3.82,4.47,2.16,1.34-.96,2.49-2.16,3.44-3.51,4.41-6.26,7.36-13.2,9.45-20.53.7-2.44.32-3.22-2.08-4.29-2.52-1.12-4.4-2.95-6.02-5.04-1.29-1.66-2.27-3.55-2.24-5.76,0-.31-.03-.79.52-.77.3.01.46.24.54.51.05.18.07.36.14.53,2.05,4.59,4.81,8.18,10.52,8.01,1.6-.05,2,.5,2.09,2.21.06,1.09.04,2.19.03,3.29,0,1.03.25,1.99.73,2.89,1.03,1.92,2.19,1.98,3.44.17.21-.3.49-.62.53-.95.29-2.7,1.43-5.21,1.44-7.99.02-7.46-2.72-14.08-6.09-20.48-2.65-5.04-6.47-9.25-10.36-13.37h0ZM351.13,376.08c-.12.44-.32.95-.84.93-.59-.02-.59-.59-.6-1.04-.01-1.19.07-2.38,0-3.56-.16-2.55-1.46-4.09-3.92-3.96-5.19.27-7.58-2.81-9.13-7.06-.38-1.04-.75-2.07-1.38-2.97-.82-1.16-1.78-1.16-2.67-.04-.9,1.12-1.16,2.44-1.08,3.86.26,4.56,2.82,7.79,6.11,10.57.76.64,1.66,1.12,2.53,1.61,2.17,1.23,2.33,1.48,1.53,3.88-.75,2.25-1.46,4.53-2.46,6.67-1.96,4.2-3.68,8.56-6.65,12.22-.88,1.08-1.71,2.9-3.26,2.35-1.1-.38-.79-2.26-.86-3.48-.13-2.27-.04-4.56-.04-6.84-.1-3.19-.29-6.39.35-9.55.05-.27-.03-.6.1-.81,1.8-2.86.15-4.86-1.31-7.3-3.55-5.93-4.43-12.45-2.81-19.23.64-2.66,1.33-5.36,2.61-7.76,1.28-2.42.76-4.34-.75-6.29-1.95-2.52-3.89-5.06-5.83-7.59-5.54-7.27-10.15-15.15-14.92-22.91-2.82-4.58-5.56-9.21-8.34-13.82-.14-.23-.3-.46-.47-.67-1.28-1.6-1.72-1.72-3.36-.45-3.42,2.65-7.15,4.74-11.21,6.2-1.97.71-4,1.24-6.01,1.83-.45.13-.95.12-1.23-.32-.38-.6,0-1.07.45-1.38,1.2-.83,2.39-1.68,3.66-2.4,7.56-4.34,12.04-10.96,14.25-19.25.89-3.34,1.62-6.73,2.2-10.14.08-.48-.14-1.26.66-1.24.69.01.64.78.82,1.25,2.59,7.21,5.31,14.36,8.39,21.38,3.97,9.04,8.8,17.62,13.83,26.09,2.28,3.84,4.37,7.79,6.94,11.46,3.88,5.55,8.44,10.51,12.97,15.51,6.44,7.1,10.07,15.56,12.11,24.77.7,3.15.45,6.35-.39,9.48h0Z"></path>
    <path class="cls-7" d="M271.54,200.79c1.97-3.52,3.24-7.34,4.74-11.05.32-.8,1.57-1.95.39-2.52-.98-.47-1.45,1.12-1.95,1.9-1.41,2.25-2.96,4.35-4.99,6.12-6.71,5.85-14.8,7.31-23.25,6.9-8.43-.41-15.66-3.89-21.54-10.06-1.95-2.05-3.96-4.04-5.65-6.32-.32-.43-.78-.99-1.34-.66-.59.35-.22.95.01,1.45.49,1.07,1.09,2.13,1.4,3.26.85,3.02,2.21,5.79,3.79,8.47,2.43,4.1,5.14,7.96,9.13,10.77,5.22,3.68,11.08,4.98,17.35,4.88,2.53-.16,5.1-.1,7.57-.81,6.66-1.91,11.05-6.45,14.33-12.32h0ZM256.11,211.29c-2.27.56-4.53.26-6.78.44-6.81.48-12.79-1.56-17.96-5.95-3.9-3.31-6.38-7.68-8.79-12.08-.11-.2-.12-.58,0-.76.31-.47.67-.1.87.12,2.27,2.4,4.85,4.41,7.6,6.21,4.77,3.12,10,4.82,15.69,4.84,3.54.01,7.12.38,10.6-.64,4.28-1.25,8.63-2.35,12.02-5.54.32-.3.72-.72,1.16-.37.45.36.09.83-.1,1.22-3.01,6.18-7.35,10.79-14.3,12.5h0Z"></path>
    <path class="cls-8" d="M257.8,188.13c9.78-4.09,16.29-14.45,16.32-25.79,0-6.08-1.49-11.76-4.99-16.77-5.34-7.65-12.69-11.83-22.08-11.4-9.27.42-16.29,5.18-20.86,13.11-5.29,9.19-5.46,18.79-.76,28.31,5.53,11.21,18.92,18.18,32.38,12.55h0ZM230.47,151.21c2.28-5.62,6.46-9.27,12.11-11.52,5.3-2.11,13.98.12,18.2,5.08,4.32,5.07,6.5,10.91,6.21,17.68.18,7.29-2.39,13.53-7.85,18.45-8.37,7.53-19.26,6.06-25.96-2.97-6.13-8.26-6.51-17.36-2.72-26.71h0Z"></path>
    <g>
      <path class="cls-5" d="M357.48,369.17c-.62-5.56-2.22-10.88-4.06-16.13-.73-2.07-1.38-4.17-2.55-6.04-4.95-7.89-10.27-15.51-16.33-22.61-4.09-4.79-7.95-9.81-10.81-15.44-4.3-8.47-7.66-17.36-11.22-26.16-3.32-8.21-6.62-16.42-10.94-24.17-1.74-3.12-3.91-5.94-6.34-8.56-.92-.99-1.93-1.7-3.36-1.3-1.41.39-1.64,1.58-1.82,2.78-.75,4.95-1.73,9.87-2,14.89-.11,2.09-.24,4.2-.61,6.26-.44,2.51-.84,5.04-1.87,7.41-.19.43-.5.86-1,.7-.34-.11-.39-.58-.32-.95.78-3.95.89-7.96,1.23-11.95.61-7.08-.02-14-2.06-20.81-1.3-4.34-3.54-8.21-5.88-12.02-2.14-3.49-4.54-6.84-6.91-10.18-.72-1.01-.61-1.53.42-2.15,2.11-1.27,4.29-2.43,6.23-3.97.72-.57,1.36-.4,1.82.37.28.47.52.96.77,1.45,3.25,6.33,6.5,12.67,9.74,19,.78,1.53,1.19,1.69,2.48,1,1.81-.99,1.95-1.35,1.14-2.9-3.47-6.62-6.94-13.26-10.42-19.87-1.3-2.48-1.31-2.49.77-4.33,1.42-1.25,1.59-1.25,2.74.31,1.83,2.51,3.61,5.05,5.44,7.55.54.73,1.13,1.44,1.81,2.05,1.1.98,1.84.84,2.7-.35.92-1.25.61-2.35-.26-3.48-2.28-2.97-4.46-6.01-6.78-8.94-.87-1.1-.87-1.9.15-2.79.28-.24.51-.53.76-.79,1.26-1.33,2.53-1.37,3.81-.14,5.4,5.18,10.8,10.37,16.22,15.54.59.57,1.22,1.1,1.88,1.58,1,.73,1.87.43,2.63-.45,1.3-1.5,1.09-3.19-.87-4.68-6.28-4.78-11.5-10.67-17.1-16.17-1.52-1.49-1.48-1.53-.15-3.07.48-.55.95-1.11,1.38-1.69,1.29-1.75,1.31-1.78,2.82-.28,2.2,2.2,4.49,4.29,7.04,6.08,1.12.79,2.3,1.49,3.72,1.64.92.1,1.88.24,2.52-.62.7-.93.47-1.9-.1-2.81-.77-1.24-1.62-2.42-2.72-3.42-1.96-1.79-4.11-3.32-6.29-4.84-3.78-2.65-3.76-2.68-1.45-6.51,1.09-1.81,1.06-1.75,2.92-.85,7.14,3.46,14.19,7.14,21.68,9.82,2.3.82,3.4.23,4.68-2.39.77-1.57.6-1.95-1.6-3.35-.54-.34-1.07-.71-1.65-.96-7.19-3.16-14.43-6.19-22.02-8.26-.62-.17-1.23-.34-1.84-.53-.75-.24-1.09-.9-.72-1.49.7-1.14-.08-2.86,1.44-3.62.19-.1.55.02.77.14,1.24.68,2.65.68,3.97.99,3.1.73,6.22,1.44,9.44,1.45,1.83,0,2.78-.63,3.05-2.08.28-1.51-.53-2.87-2.06-3.43-.34-.12-.71-.17-1.07-.22-2.07-.31-4.14-.63-6.22-.9-1.99-.26-3.99-.48-5.98-.69-1.17-.13-1.57-.78-1.36-1.88.17-.91.3-1.78,1.66-1.65,6.38.58,12.77.18,19.16.13,2.36-.01,4.73-.31,7.07-.69,1.91-.31,2.9-1.59,2.84-3.14-.04-1.2-.9-1.88-3.04-2.13-4.09-.48-8.21-.46-12.29-.04-4.47.46-8.94.26-13.41.3-1.14.01-1.68-.54-1.64-1.67.06-2.12-.45-4.16-.86-6.22-.35-1.75-.23-1.89,1.41-2.15,3.5-.55,7.01-1.11,10.51-1.66,1.11-.17,2.11-.64,3.02-1.24,1.61-1.06,1.73-3.06.4-4.48-1.04-1.11-2.27-1.02-3.55-.69-3.97,1.03-8.07,1.54-11.98,2.82-.97.32-1.57.17-1.95-.8-.54-1.35-.89-2.77-1.64-4.05-.47-.81.08-1.41.78-1.77,1.46-.76,2.89-1.58,4.42-2.17,6.58-2.52,12.93-5.5,19.02-9.03.71-.41,1.41-.85,2.04-1.36.81-.65.96-1.52.56-2.47-.38-.9-.98-1.54-2.02-1.6-.84-.05-1.64.13-2.41.44-3.89,1.57-7.82,3.01-11.58,4.93-4.3,2.21-8.73,4.18-13.11,6.23-1.47.69-1.92.32-3.2-1.87-.77-1.32.02-1.79.95-2.32,2.87-1.62,5.48-3.63,8.14-5.55.81-.58,1.58-1.27,2.19-2.05.91-1.15.57-2.08-.73-3.62-.91-1.08-1.61-.76-2.54-.1-1.78,1.27-3.66,2.4-5.38,3.77-1.64,1.3-3.41,2.44-5.12,3.66-.63.45-1.31.82-1.96.15-1.05-1.08-1.3-2.59-1.83-3.92-.4-.99.71-1.57,1.31-2.21,3.49-3.74,7.05-7.4,10.47-11.2,2.13-2.37,4.41-4.62,6.24-7.26,1.12-1.62.98-3.12-.45-4.31-1.13-.94-2.35-.73-3.83.67-.33.31-.67.63-.97.97-5.28,5.92-10.88,11.57-15.9,17.72-.4.49-.79,1.02-1.27,1.43-1.24,1.07-2.27.03-3.21-.53-1.1-.66-.16-1.37.25-2.02,1.83-2.95,3.29-6.1,4.94-9.14.74-1.35.5-2.21-.57-3.06-1.15-.91-2.17-.81-3.36.4-1.1,1.11-1.91,2.44-2.7,3.78-1.02,1.73-2.04,3.46-3.07,5.18-.33.55-.67,1.11-1.44,1.07-1.76-.08-2.9-1.8-2.2-3.43,1.78-4.1,3.58-8.19,5.44-12.25,1.86-4.06,3.72-8.12,5.14-12.36.72-2.15-.43-3.75-2.59-3.7-1.31.03-1.91.92-2.38,1.96-1.21,2.66-2.39,5.33-3.6,7.99-2.45,5.4-4.9,10.81-7.39,16.19-.86,1.86-1.05,1.94-2.91,1.24-.87-.33-1.76-.45-2.65-.61-1.71-.31-1.73-.47-1.5-2.15.46-3.25.84-6.51,1.22-9.76.14-1.18-.14-2.2-1.41-2.65-2.06-.72-4.09.42-4.61,2.56-.48,1.97-.6,3.96-.57,5.98.02,1.09.03,2.18-.19,3.27-.26,1.28-.79,2.04-2.22,1.64-1.43-.4-2.89-.37-4.35-.31-1.26.06-1.98-.42-1.72-1.75,1.1-5.88.57-11.84.84-17.76.1-2.19.03-4.38.01-6.57,0-.94-.1-1.83-1.22-2.18-2.61-.81-4.05.2-4.1,2.93,0,.37,0,.73,0,1.1-.04,7.49-.06,14.98-.13,22.46-.02,1.99-.51,2.33-2.46,2.25-1.48-.06-1.78-1.03-1.92-2.19-.33-2.82-1.02-5.56-1.78-8.28-.23-.81-.53-1.53-1.09-2.17-.87-.99-1.78-1.08-2.9-.4-1.81,1.11-2.22,2.11-1.71,4.41.61,2.76,1.17,5.53,1.82,8.27.25,1.03-.15,1.57-1.02,1.91-.82.31-1.41-.02-1.82-.75-.18-.32-.34-.65-.48-.98-2.38-6.13-5.37-11.99-8.06-17.99-.86-1.91-1.78-3.81-2.82-5.63-.81-1.42-1.8-1.73-2.95-1.25-2.67,1.11-3.57,3.33-2.31,5.99,2.23,4.7,4.55,9.36,7.29,13.79,1.44,2.33,2.74,4.74,4.07,7.14.8,1.44.63,1.84-.87,2.43-.93.37-1.88.68-2.81,1.07-2.13.89-2.12.9-3.47-1.1-2.04-3.04-4.25-5.94-6.94-8.44-1.39-1.29-2.33-1.24-3.57-.05-1.43,1.38-1.49,2.21-.29,3.69,2.07,2.55,4.14,5.1,6.19,7.66,1.26,1.58,1.21,1.79-.51,2.92-.15.1-.3.21-.47.27-1.28.48-2.15,2.05-3.5,1.95-1.44-.1-1.89-1.84-2.87-2.76-4.25-4.01-8.42-8.1-12.65-12.13-1.71-1.64-3.49-3.21-5.24-4.81-.54-.5-1.13-1.09-1.92-.77-1.37.56-1.98,1.87-2.53,3.09-.47,1.03.46,1.68,1.12,2.28,2.1,1.89,4.23,3.75,6.37,5.61,4.27,3.71,8.56,7.4,12.83,11.1.48.41,1.2.87.92,1.53-.51,1.2-1.66,1.91-2.71,2.6-.72.48-1.34-.21-1.96-.58-3.12-1.88-6.26-3.74-9.39-5.62-1.09-.66-2.05-.58-2.95.36-1.36,1.42-1.3,2.62.42,3.86,2.22,1.61,4.66,2.87,7.09,4.13,4.45,2.29,3.18,1.74,1.11,5.17-.05.08-.1.15-.16.23-.49.67-1.09.93-1.89.55-.82-.4-1.65-.77-2.48-1.17-7.34-3.51-15.06-6.08-22.58-9.14-1.83-.74-2.82-.34-3.34,1.07-.47,1.28,0,2.36,1.53,3.04,4.83,2.15,9.67,4.3,14.55,6.36,3.19,1.35,6.46,2.53,9.67,3.83,1.71.7,1.76.95.99,2.64-.68,1.49-1.35,2.99-1.99,4.51-.8,1.9-.77,1.86-2.79.99-2.85-1.22-5.76-2.3-8.6-3.55-1.4-.61-2.27-.1-3.03.97-.8,1.12-.65,2.23.17,3.27.59.74,1.44,1.11,2.29,1.44,2.29.9,4.59,1.79,6.89,2.67,2.1.8,2.08.79,1.66,2.91-.25,1.25-.46,2.51-.62,3.78-.27,2.03-.34,2.03-2.35,1.97-8.57-.27-17.15-.48-25.72-.76-1.35-.04-2.27.48-2.95,1.58-.98,1.58-.99,1.58-2.61.59-2.67-1.63-3.99-1.59-6.5.26-.51.38-.98.83-1.42,1.28-3.51,3.55-5.91,7.77-7.97,12.32-6.06,13.37-8.73,27.19-6.48,41.83.36,2.34.46,4.71,1.29,6.97.73,1.96,1.38,3.94,1.96,5.95.65,2.24,1.51,4.47,2.82,6.5,3.75,5.79,7.96,11.14,13.8,14.96,1.51.99,2.23,2.11,2.18,4.03-.17,5.87.7,11.63,2.45,17.25.43,1.39.71,2.83.91,4.27.33,2.38,1.13,4.6,2.15,6.75.55,1.15,1.21,2.27,1.59,3.48,1.22,3.81,3.54,7.05,5.89,10.11,4.97,6.5,11.58,11.03,19.04,14.33.77.34,1.56.46,2.39.49,5.33.19,8.92-2.21,10.97-7.22,2.17-5.32,3.87-10.82,6.11-16.12,4.03-9.53,9.96-17.65,17.91-24.2,4.38-3.6,9.46-5.99,15.32-5.7,6.46.32,11.62,2.89,14.37,9.17.6,1.36,1,2.77,1.25,4.18,1.15,6.46,1,12.77-3.23,18.28-2.75,3.59-6.33,5.69-11.01,5.64-2.6-.03-5.03-.87-7.52-1.37-3.47-.69-3.46-.77-5.57,2.13-.16.22-.3.46-.46.68-4.83,6.76-9.66,13.51-14.5,20.27-1.12,1.56-2.28,3.08-3.37,4.66-1,1.45-.67,2.04,1.14,2.15.18.01.37,0,.55,0h19.45v-.03c1.46,0,2.92.04,4.38,0,11.72-.42,23.32.31,34.75,3.24,9.35,2.39,18.29,5.71,26.58,10.65,2.54,1.51,4.73,3.47,6.15,6.1,2.05,3.78.34,7.64-3.82,8.78-.7.19-1.43.31-2.15.34-5.12.2-10.21-.02-15.26-.97-4.3-.81-8.59-1.7-12.92-2.33-4.59-.67-9.21-1.17-13.84-1.58-3-.27-5.96-.89-8.96-1.07-10.24-.61-20.42.44-30.56,1.62-7.68.89-15.26,2.55-22.98,3.34-7.25.74-14.48,1.54-21.79,1.05-3.01-.2-5.72-1.11-7.85-3.36-2.57-2.7-2.71-5.67-.46-8.61.95-1.24,2.04-2.31,3.25-3.31,1.92-1.58,4.1-2.72,6.24-3.94,5.98-3.4,12.24-6.08,18.99-7.58,2.31-.51,4.56-1.31,6.82-2.01.54-.17,1.04-.55,1.03-1.14-.02-.75-.71-.7-1.24-.74-4.82-.37-9.63-.96-14.46-1.03-10.93-.15-21.56,1.81-31.99,5.04-8.03,2.49-15.14,6.48-20.62,12.86-3.53,4.12-6.85,8.58-5.77,14.7.24,1.38.74,2.63,1.2,3.9,2.34,6.43,5.94,11.88,11.97,15.5,4,2.4,8.15,4.45,12.43,6.31,5.43,2.36,11.11,3.48,16.96,3.86,4.27.28,8.54.38,12.82.23,4.1-.14,8.24-.12,12.26-.94,5.18-1.06,10.37-1.95,15.61-2.64,4.88-.64,9.81-1.01,14.65-1.81,7.82-1.28,15.6-1.25,23.41-.51,7.07.67,14.12,1.64,21.17,2.49,2.17.26,4.45.23,6.47.93,4.9,1.69,9.91,2.17,15.04,2.48,5.82.36,11.43-.3,16.97-1.95,5.94-1.76,11.22-4.78,16.11-8.53.57-.43,1.02-1.21,1.86-.87.92.37.91,1.27.91,2.1,0,.37,0,.73-.01,1.1-.28,5.47-.55,10.93-.84,16.39-.14,2.65.03,5.29.44,7.91.27,1.71,1.46,2.96,2.42,4.22.62.82,2.08.27,3.16.32.82.04,1.64,0,2.46,0,.46,0,.91-.05,1.28-.38,3.25-2.92,6.54-5.8,8.82-9.62,1.6-2.68,2.77-5.54,4.03-8.38.71-1.59,1.1-1.71,2.27-.42,1.21,1.33,2.37,1.36,3.89.62,2-.98,3.38-2.43,4.17-4.49,1.08-2.83,1.6-5.8,2.23-8.74.35-1.64.34-3.25.15-4.89h0ZM284.24,281.35c.06.11.13.22.15.34,0,.04-.1.11-.15.17-.06-.11-.12-.22-.17-.32.06-.07.11-.12.17-.18h0ZM198.13,148.48c2.92-8.63,8.42-15.24,15.56-20.66,8.19-6.21,17.38-10.04,27.56-11.19,16.62-1.89,31.57,2.08,43.93,13.76,6.4,6.04,10.1,13.77,12.48,22.15,1.33,4.68,1.9,9.47,1.84,14.35-.03,14.44-5.09,26.92-14.84,37.49-4.82,5.23-10.68,9.08-17.16,12-.5.22-.99.48-1.52.6-.47.1-.87-.17-1.12-.61-.26-.46-.17-.9.16-1.26.24-.26.56-.46.87-.66,7.14-4.72,11.71-11.38,14.56-19.32,1.92-5.35,2.84-10.91,3.4-16.54.25-2.45.38-4.91.55-7.36.05-.75,0-1.57-.84-1.83-.88-.27-1.32.47-1.66,1.11-.97,1.86-1.9,3.74-2.84,5.62-2.13,4.26-4.76,8.22-7.85,11.82-4.48,5.22-10.44,7.82-17.05,9.1-1.43.27-2.89.39-4.34.58-7.13.93-13.16-1.58-18.93-5.56-7.39-5.11-12.7-11.95-17.34-19.45-.65-1.05-1.19-3-2.41-2.58-1.55.53-.18,2.19-.11,3.35.29,4.86,1.31,9.58,2.94,14.15,2.62,7.34,6.01,14.29,10.92,20.41,1.08,1.35,2.35,2.54,3.56,3.78.61.62,1.18,1.25.54,2.13-.64.88-1.43.52-2.19.13-16.11-8.12-26.76-20.65-30.44-38.49-1.87-9.07-1.24-18.13,1.76-27h0ZM257.21,213.11c-2.48.71-5.04.65-7.57.81-6.28.1-12.13-1.2-17.35-4.88-3.99-2.81-6.7-6.66-9.13-10.77-1.58-2.68-2.94-5.45-3.79-8.47-.32-1.13-.91-2.18-1.4-3.26-.23-.5-.6-1.1-.01-1.45.56-.33,1.02.22,1.34.66,1.7,2.28,3.7,4.27,5.65,6.32,5.88,6.17,13.11,9.66,21.54,10.06,8.45.41,16.54-1.04,23.25-6.9,2.03-1.77,3.57-3.87,4.99-6.12.49-.78.97-2.37,1.95-1.9,1.17.57-.07,1.73-.39,2.52-1.5,3.72-2.77,7.53-4.74,11.05-3.28,5.87-7.67,10.41-14.33,12.32h0ZM191.12,188.92c1.02-.4,1.69-.38,2.23.7.78,1.54,1.64,3.05,2.53,4.54.59.98.49,1.68-.51,2.28-2.83,1.68-5.17,4.03-8,5.74-1.91,1.15-1.89,2.08-.37,3.66.83.87,1.55.75,2.38.11,2.53-1.94,5.1-3.85,7.6-5.82,1.75-1.37,1.76-1.4,3.19.36,1.04,1.27,2.1,2.52,3.17,3.77,1.67,1.93,1.65,1.91-.01,3.71-5.14,5.56-10.24,11.15-15.4,16.7-.89.96-1.2,1.7-.14,2.76,1.28,1.28,1.49,1.37,2.82.03,5.32-5.39,10.44-10.97,15.42-16.68,1-1.14,2.05-1.22,3.16-.23.96.85,1.89,1.72,2.89,2.52.91.72.97,1.39.24,2.3-1.48,1.85-2.93,3.73-4.33,5.65-.94,1.29-.83,1.82.29,2.78.87.75,1.56.73,2.28-.24,1.42-1.9,2.88-3.77,4.36-5.62,1.38-1.71,1.54-1.73,3.3-.5,1.35.95,2.81,1.69,4.29,2.41,1.03.5,1.03,1.12.29,1.91-6.97,7.52-12.81,15.91-18.29,24.52-4.81,7.56-8.57,15.66-11.01,24.33-.77,2.72-1.82,5.35-2.75,8.02-.09.26-.21.51-.33.75-.37.77-.84,1.45-1.78,1.5-1.09.06-1.57-.72-2.02-1.56-3.5-6.46-5.7-13.39-7.21-20.54-.6-2.84-1.77-5.59-1.48-8.26-.43-2.78.06-5.04,1.38-7.13.59-.92,1.03-1.95,1.68-2.82,2.77-3.68,3.39-7.99,3.67-12.39.14-2.27.07-4.55.42-6.82.4-2.57-.28-5.11-.75-7.58-.49-2.54-.74-5.04-.75-7.59,0-1.65-.1-3.29-.65-4.86-.83-2.38-2.24-3.36-4.75-2.93-1.76.3-1.63-1.02-2.07-1.91-.54-1.09-.06-1.68.98-2.08,4.68-1.8,9.36-3.6,14.02-5.46h0ZM160.02,165.64c.19-.71.84-.51,1.37-.5.37,0,.73,0,1.09,0,0,.06,0,.11,0,.17,7.56.23,15.12.46,22.69.7,2.34.07,2.4.15,2.57,2.5.27,3.6.27,3.62-3.32,3.79-2.55.13-5.06.7-7.63.54-.76-.05-1.45.23-2,.75-.68.66-1.2,1.43-.86,2.43.38,1.11,1.33,1.09,2.27.99,3.45-.34,6.89-.72,10.34-1.02,2.08-.18,2.08-.12,2.62,1.81.42,1.49.78,3.01,1.33,4.45.47,1.23.1,1.91-1.04,2.35-1.28.49-2.56.97-3.83,1.48-2.95,1.21-5.9,2.42-8.84,3.67-1.94.82-1.92.84-2.59-1.24-1.12-3.48-2.57-6.84-4.13-10.12-1.95-4.08-4.99-7.38-8.23-10.49-.4-.38-.83-.72-1.22-1.1-.33-.32-.71-.69-.59-1.16h0ZM321.45,345.57c-1.32,6.71-2.22,13.5-1.79,20.39.08,1.25-.3,2.26-1.05,3.28-2.68,3.68-6.52,5.6-10.68,6.75-8.12,2.23-16.41,3.58-24.88,2.83-4.08-.36-8.11-1.21-12.17-1.75-7.58-1.01-15.03-2.96-22.68-3.45-4.73-.3-9.47-.47-14.21.21-2.7.39-5.44.58-8.18.65-7.6.2-15.03,1.47-22.45,3.06-6.6,1.42-13.3,2.4-20.02,2.79-5.63.33-11.29-.3-16.91-1.06-2.89-.39-5.78-.76-8.61-1.49-7.75-2.01-15.08-4.94-21.43-9.96-.71-.56-1.34-1.24-2.06-1.8-7.25-5.71-6.19-17.33-.93-23.45,4.11-4.79,9.16-8.04,15.01-10.15,3.86-1.39,7.63-3.01,11.61-4.07,4.62-1.23,9.35-1.45,14.06-1.95.56-.06,1.23-.03,1.32.64.11.81-.66.99-1.25,1.21-5.8,2.18-10.87,5.55-15.53,9.58-1.88,1.62-3.37,3.58-4.59,5.75-1.44,2.57-1.31,5.06.32,7.48,2.78,4.16,6.59,6.73,11.57,7.52,5.98.94,11.98.93,17.99.61,1.08-.06,2.17-.29,3.22-.58,7.23-2,14.69-2.68,22.06-3.89,9.73-1.61,19.52-2.72,29.39-2.57,6.92.1,13.82.67,20.69,1.79,8.98,1.47,17.89,3.44,26.96,4.36,4.09.41,8.2.51,12.28-.18,6.91-1.18,10.73-9.25,7.05-15.21-3.04-4.92-7.42-8.54-12.51-11.19-7.56-3.93-15.53-6.84-23.89-8.54-3.2-.66-6.49-.95-9.76-1.22-10.18-.83-20.35-1.76-31.86-1.62-1.83,0-4.93.03-8.04-.01-2.45-.03-2.8-.7-1.52-2.77,3.22-5.2,6.87-10.11,10.39-15.12,1.12-1.6,2.4-2.3,4.42-1.58,3.43,1.22,7.06,1.14,10.57.74,4.99-.56,8.77-3.41,11.66-7.42,2.41-3.34,3.5-7.22,4.07-11.21.42-2.96.86-5.94.81-8.97-.17-10.53-8.44-19.24-19.6-19.5-7.51-.18-14.22,2.19-20.3,6.34-2.7,1.85-4.83,4.46-7.03,6.89-1.96,2.16-3.7,4.52-5.56,6.76-4.05,4.87-6.08,10.77-8.41,16.52-1.44,3.55-2.67,7.18-4.05,10.76-1.58,4.13-3.52,5.16-7.62,3.7-6.82-2.43-12.2-6.85-16.34-12.74-3.97-5.66-6.16-12.12-8.45-18.6-2.09-5.91-2.89-12.04-4.27-18.06.68-6.37-4.27-9.66-7.62-13.78-1.55-1.9-3.48-3.49-5.16-5.3-4.1-4.4-6.5-9.59-7.34-15.57-.96-6.87-1.71-13.74-1.53-20.69.27-10.32,3.59-19.65,9.19-28.23,1.05-1.61,2.26-3.1,3.66-4.42,1.55-1.46,2.06-1.41,3.76-.2,2.49,1.78,4.39,4.14,6.25,6.49,2.84,3.57,5.43,7.35,7.13,11.63,1.39,3.49,2.03,7.17,2.35,10.9.15,1.72-.11,3.47.26,5.19.19.87-.12,1.61-.47,2.36-.7,1.51-1.23,3.08-1.01,4.76.22,1.71-.32,3.03-1.62,4.11-3.28,2.74-4.55,6.51-5.34,10.52-.2,1-.28,2,.06,2.98.25.69.52,1.45,1.49,1.26.74-.15,1-.73,1.02-1.43.02-.64.04-1.28,0-1.92-.25-4.38,1.51-7.84,4.97-10.4,1.41-1.05,2.17-2.28,2.61-3.97.77-2.95,2.29-5.56,4.5-7.71,2.23-2.17,4.41-1.59,5.31,1.39.13.43.23.9.23,1.34-.02,6.48,1.03,12.91.97,19.39-.05,5.67-1.75,10.78-5,15.36-4.43,6.26-4.42,6.22-2.45,13.56.95,3.52,1.53,7.13,2.53,10.63,1.65,5.8,3.73,11.45,6.17,16.97.62,1.41,1.38,2.79,2.25,4.06,1.72,2.52,4,2.49,5.7-.06,1.85-2.76,2.71-5.97,3.91-9.03,5.18-13.21,11.37-25.89,19.72-37.43,1.28-1.77,2.41-3.66,3.69-5.44,5.26-7.29,12.22-12.24,20.86-14.64,7.08-1.96,13.63-1.08,19.49,3.89,8.03,6.81,14.49,14.65,17.53,24.92,1.85,6.23,3.03,12.56,3.1,19.1.13,12.05-4.13,22.45-11.72,31.62-2.42,2.92-2.36,3.92.84,6.04,4.71,3.12,9.54,6.07,14.28,9.16,8.18,5.33,16.35,10.67,24.22,16.47,3.59,2.65,7.29,5.17,10.85,7.88.29.22.58.45.87.66,2.51,1.77,3.26,4,2.65,7.11h0ZM280.29,306.44c.08-.54.59-.65,1.01-.78,3.95-1.21,7.72-2.77,10.96-5.43.2-.17.49-.22.7-.31,1.03.08,1.39.87,1.84,1.54,2.12,3.19,4.3,6.35,6.34,9.59,2.35,3.71,4.89,7.26,7.62,10.69,1.49,1.87,2.53,4.01,3.81,6,.19.29.41.67.04.97-.33.28-.7.09-.99-.12-2.05-1.52-4.09-3.06-6.13-4.59-5.91-4.44-11.68-9.05-17.91-13.04-2.07-1.33-4.3-2.39-6.45-3.59-.38-.21-.93-.32-.84-.92h0ZM352.23,378.2c-.03.33-.32.65-.53.95-1.25,1.81-2.41,1.76-3.44-.17-.48-.9-.74-1.86-.73-2.89.01-1.1.03-2.19-.03-3.29-.09-1.7-.49-2.25-2.09-2.21-5.71.17-8.48-3.42-10.52-8.01-.07-.17-.1-.35-.14-.53-.07-.28-.23-.5-.54-.51-.55-.02-.52.46-.52.77-.03,2.21.95,4.1,2.24,5.76,1.63,2.09,3.51,3.92,6.02,5.04,2.4,1.06,2.78,1.85,2.08,4.29-2.09,7.32-5.04,14.27-9.45,20.53-.95,1.34-2.09,2.54-3.44,3.51-2.32,1.66-4.36.74-4.47-2.16-.15-3.65-.78-7.26-.62-10.32.02-4.61.02-8.63,1.5-12.45.37-.94-.13-1.56-.64-2.22-3.69-4.86-4.96-10.46-5.12-16.43-.13-4.89,1.68-9.31,3.44-13.69.81-2.01.47-3.31-.62-4.97-2.7-4.13-6.18-7.67-8.86-11.81-6.5-10.03-12.68-20.25-18.84-30.49-.19-.31-.35-.64-.54-.95-1.15-1.81-1.44-1.89-3.15-.59-3.45,2.61-7.25,4.57-11.28,6.07-1.36.51-2.79.87-4.21,1.19-.79.17-1.64.18-2.45.12-1.13-.1-2.2-.54-2.7-1.61-.59-1.24.42-2.01,1.13-2.83.97-1.13,2.2-1.96,3.48-2.63,8.16-4.3,12.65-11.27,14.7-20.04,1.23-5.24,2.23-10.51,2.38-15.91.02-.6-.29-1.45.47-1.68,1-.29,1.14.67,1.34,1.33,1.29,4.29,3.15,8.36,4.9,12.47,2.83,6.62,5.24,13.43,8.39,19.91,3.7,7.64,7.75,15.08,12.12,22.36,1.74,2.89,3.56,5.74,5.18,8.69,2.8,5.09,6.61,9.38,10.56,13.56,3.89,4.12,7.71,8.33,10.36,13.37,3.36,6.4,6.11,13.02,6.09,20.48,0,2.78-1.15,5.29-1.44,7.99h0Z"></path>
      <path class="cls-4" d="M317.54,340.11c-6.11-4.93-12.66-9.28-19.07-13.79-8.8-6.2-17.86-12.02-27.03-17.66-2.1-1.29-4.23-2.54-5.96-4.34-2.18-2.28-2.28-3.47-.43-5.97,1.57-2.13,3.34-4.1,4.76-6.34,3.35-5.3,6.25-10.87,6.88-17.13.85-8.37.5-16.74-1.78-24.97-2.81-10.14-8.56-18.2-16.4-25.03-5.61-4.88-11.88-6.04-18.88-4.08-7.82,2.19-14.09,6.7-19.01,13.1-1.11,1.44-2.1,2.98-3.12,4.5-2.48,3.72-5.2,7.28-7.38,11.2-5.68,10.21-10.92,20.63-14.67,31.75-.81,2.41-1.93,4.73-3.89,6.52-2.11,1.93-4.14,2.03-6.33.15-1.04-.9-1.89-1.95-2.56-3.18-2.05-3.78-3.48-7.83-5.07-11.81-2.97-7.41-4.14-15.3-6.22-22.94-.81-2.99-.13-5.6,1.56-8.02,1.26-1.8,2.52-3.58,3.61-5.48,2-3.48,2.96-7.15,3-11.21.07-6.58-.64-13.12-.71-19.68,0-.27-.02-.55-.07-.82-.1-.56-.3-1.07-.93-1.21-.53-.12-.85.24-1.15.58-1.84,2.1-3.22,4.46-3.59,7.25-.2,1.49-.8,2.49-2.06,3.31-4.53,2.95-6.21,7.21-5.47,12.49.04.27.1.54.16.81.27,1.27-.38,1.88-1.51,2.14-3.79.86-5.93-.77-5.74-4.71.22-4.67,1.53-9.01,5.03-12.35,1.4-1.34,2.4-2.69,2.05-4.75-.14-.81-.03-1.68.34-2.42,1.22-2.38.99-4.9.93-7.45-.16-7.05-2.22-13.44-6.21-19.24-2.23-3.24-4.61-6.35-7.57-8.97-1.38-1.23-1.68-1.25-2.93.1-.99,1.07-1.86,2.25-2.69,3.44-2.92,4.15-4.64,8.86-6.34,13.6-1.88,5.25-2.58,10.69-2.22,16.16.37,5.63.54,11.28,1.37,16.89.77,5.18,2.49,9.87,5.87,13.92,3.74,4.49,8.18,8.32,11.89,12.84,1.47,1.79,2.41,3.59,2.46,5.89.03,1.18-.02,2.4.23,3.54,1.3,5.86,2.21,11.78,4.23,17.51,2.23,6.31,4.43,12.55,8.35,18.05,3.21,4.49,7.51,7.66,12.26,10.27,1.02.56,2.22.86,3.37,1.13,2.01.47,2.89.02,3.65-1.86,1.27-3.13,2.46-6.29,3.68-9.43,2.14-5.52,3.93-11.22,7.36-16.13,3.82-5.47,8.12-10.55,12.91-15.22.99-.97,2.04-1.84,3.22-2.53,3.08-1.79,6.18-3.54,9.61-4.58,7.43-2.25,14.76-2.58,21.71,1.48,6.87,4.01,10.74,9.97,11.01,18.05.16,4.87-.45,9.67-1.78,14.34-1.85,6.53-5.67,11.59-11.93,14.54-4.96,2.34-10.12,2.01-15.24.73-1.59-.4-2.61-.22-3.52,1.09-2.85,4.13-5.75,8.22-8.59,12.36-.84,1.23-.65,1.58.81,1.61,2.83.04,5.66.01,8.49.01,4.29.02,8.56.24,12.85.43,4.37.2,8.74.56,13.1.83,4.45.27,8.89.94,13.28,1.7,8.62,1.49,16.63,4.83,24.38,8.74,5.11,2.57,9.43,6.24,12.84,10.88,5.58,7.59.57,16.82-6.07,19.17-1.82.64-3.78.56-5.68.69-5.22.34-10.4-.16-15.51-1.14-2.78-.54-5.6-.64-8.37-1.25-9.99-2.19-20.1-3.53-30.32-3.89-9.23-.33-18.39.68-27.52,1.91-3.79.51-7.55,1.25-11.35,1.72-3.08.38-6.14.8-9.16,1.52-2.39.57-4.75,1.46-7.18,1.68-7.2.68-14.42.65-21.52-.9-4.94-1.07-8.82-3.83-11.51-8.18-2.01-3.24-2.04-6.55-.27-9.87.86-1.61,1.94-3.08,3.24-4.39,2.85-2.88,6.14-5.16,9.67-7.12.48-.27.97-.51,1.43-.81.23-.15.33-.45.18-.69-.07-.12-.33-.19-.49-.17-.45.05-.89.16-1.34.25-6.32,1.18-12.19,3.78-18.12,6.1-4.28,1.68-8.01,4.31-11.18,7.72-5.2,5.6-7.17,15.93,1.04,22.55,5.06,4.08,10.77,6.86,16.9,8.78,4.08,1.27,8.28,2,12.55,2.62,5.25.76,10.49,1.28,15.76,1.25,6.31-.03,12.52-1.23,18.69-2.4,9.23-1.75,18.44-3.52,27.87-3.63,1.46-.02,2.91-.26,4.36-.39,3.45-.31,6.93-.71,10.37-.56,7.1.32,14.13,1.41,21.13,2.66,3.32.59,6.75.61,10.02,1.38,6.28,1.48,12.53,2.13,18.97,1.3,5.71-.74,11.36-1.63,16.79-3.62,2.47-.9,4.51-2.35,6.26-4.28.71-.78,1.14-1.6,1.07-2.7-.44-7.24.62-14.37,1.78-21.48.33-2-.16-3.2-1.71-4.45h0Z"></path>
    </g>
    <path class="cls-3" d="M326.44,326.32c-2.57-3.67-4.66-7.63-6.94-11.46-5.03-8.47-9.86-17.05-13.83-26.09-3.08-7.02-5.8-14.17-8.39-21.38-.17-.48-.13-1.24-.82-1.25-.8-.01-.58.77-.66,1.24-.58,3.42-1.31,6.8-2.2,10.14-2.21,8.29-6.69,14.9-14.25,19.25-1.26.73-2.46,1.57-3.66,2.4-.46.32-.83.79-.45,1.38.28.44.78.45,1.23.32,2.01-.59,4.04-1.12,6.01-1.83,4.06-1.47,7.79-3.55,11.21-6.2,1.64-1.27,2.08-1.15,3.36.45.17.21.33.44.47.67,2.78,4.61,5.53,9.23,8.34,13.82,4.77,7.77,9.37,15.65,14.92,22.91,1.94,2.54,3.88,5.07,5.83,7.59,1.51,1.95,2.03,3.88.75,6.29-1.28,2.41-1.97,5.1-2.61,7.76-1.62,6.78-.74,13.3,2.81,19.23,1.46,2.44,3.11,4.43,1.31,7.3-.13.21-.05.54-.1.81-.64,3.16-.44,6.36-.35,9.55,0,2.28-.09,4.57.04,6.84.07,1.22-.24,3.09.86,3.48,1.56.54,2.38-1.27,3.26-2.35,2.97-3.65,4.69-8.01,6.65-12.22,1-2.14,1.72-4.42,2.46-6.67.8-2.4.64-2.65-1.53-3.88-.87-.49-1.78-.97-2.53-1.61-3.29-2.78-5.86-6.01-6.11-10.57-.08-1.42.18-2.74,1.08-3.86s1.85-1.12,2.67.04c.63.9,1,1.93,1.38,2.97,1.55,4.25,3.94,7.33,9.13,7.06,2.47-.13,3.77,1.41,3.92,3.96.07,1.18,0,2.37,0,3.56,0,.45,0,1.02.6,1.04.51.02.72-.49.84-.93.83-3.13,1.08-6.33.39-9.48-2.04-9.22-5.67-17.67-12.11-24.77-4.53-5-9.09-9.96-12.97-15.51h0Z"></path>
    <path class="cls-8" d="M270.52,197.57c-.44-.36-.84.07-1.16.37-3.39,3.19-7.74,4.29-12.02,5.54-3.48,1.02-7.06.65-10.6.64-5.69-.02-10.93-1.72-15.69-4.84-2.75-1.81-5.34-3.81-7.6-6.21-.21-.22-.57-.6-.87-.12-.12.18-.1.55,0,.76,2.41,4.4,4.89,8.77,8.79,12.08,5.17,4.39,11.15,6.43,17.96,5.95,2.25-.18,4.51.12,6.78-.44,6.95-1.71,11.3-6.32,14.3-12.5.19-.4.55-.86.1-1.22h0Z"></path>
    <path class="cls-7" d="M259.14,180.89c5.46-4.91,8.03-11.16,7.85-18.45.28-6.77-1.9-12.6-6.21-17.68-4.23-4.97-12.9-7.19-18.2-5.08-5.65,2.25-9.83,5.91-12.11,11.52-3.79,9.35-3.4,18.45,2.72,26.71,6.7,9.03,17.59,10.5,25.96,2.97h0ZM235.05,147.67c7.24-9.07,19.4-8.69,25.91.9,3.39,4.99,4.39,10.52,3.76,16.43-.38,3.58-1.41,6.95-3.23,10.07-3.78,6.49-10.95,9.64-17.93,7.8-3.59-.95-6.34-3.17-8.49-6.11-3.15-4.32-5.02-9.08-4.48-13.99-.18-5.92,1.02-10.8,4.46-15.1h0Z"></path>
    <path class="cls-8" d="M235.07,176.76c2.14,2.94,4.89,5.16,8.49,6.11,6.98,1.84,14.16-1.31,17.93-7.8,1.82-3.12,2.85-6.49,3.23-10.07.63-5.91-.37-11.44-3.76-16.43-6.51-9.59-18.67-9.97-25.91-.9-3.43,4.3-4.64,9.18-4.46,15.1-.54,4.91,1.33,9.67,4.48,13.99h0Z"></path>
  </g>
  <g>
    <path class="cls-9" d="M178.73,457.08l-.55.46c-1.49-.5-2.69-1.16-3.62-2s-1.56-1.77-1.88-2.8c-.33-1.03-.3-2.1.06-3.19.37-1.12,1.04-2.02,1.98-2.71.95-.69,2.08-1.11,3.38-1.26s2.67.01,4.09.49c.58.2,1.31.47,2.18.84.87.36,1.68.67,2.41.91.77.26,1.52.5,2.22.71.71.21,1.34.41,1.9.6.07.02.07.1.03.23-.04.13-.1.18-.16.16-.6-.2-1.09-.3-1.46-.31-.37,0-.68.13-.93.41-.25.28-.48.73-.68,1.35l-5,14.96c-.21.62-.3,1.11-.27,1.47s.18.65.48.88c.3.23.74.45,1.35.65.04.01.04.09,0,.22-.04.13-.09.19-.13.17-.56-.19-1.18-.41-1.86-.67-.68-.26-1.41-.52-2.18-.78-.62-.21-1.28-.39-1.97-.55-.69-.16-1.38-.35-2.07-.58-1.29-.43-2.34-.96-3.16-1.58-.81-.62-1.36-1.32-1.65-2.1s-.28-1.63.03-2.56c.4-1.18,1.23-2.11,2.51-2.77,1.28-.66,2.92-.87,4.95-.63h0ZM176.78,466.16c.41.14.76.18,1.05.13.29-.05.53-.2.73-.46.19-.26.38-.66.56-1.2l2.11-6.33,1.12.63c-.7-.26-1.28-.47-1.73-.63-.45-.16-.69-.25-.74-.27-1.16-.39-2.18-.24-3.05.44-.87.68-1.52,1.64-1.94,2.89-.27.82-.38,1.55-.32,2.19s.28,1.18.64,1.62c.37.44.89.76,1.56.99h0ZM182.48,447.05c-1.49-.5-2.69-.47-3.61.07-.92.54-1.62,1.51-2.09,2.91-.53,1.59-.58,3.02-.15,4.28s1.48,2.17,3.17,2.73c.22.07.58.19,1.1.35.52.16,1.09.29,1.71.37l-1.2.03,2.69-8.05c.14-.43.22-.81.22-1.13s-.14-.61-.41-.86c-.28-.25-.75-.48-1.42-.71h0Z"></path>
    <path class="cls-9" d="M145.38,453.98c-1.86-.95-3.13-2.03-3.8-3.22-.67-1.2-.7-2.41-.08-3.62.39-.77.95-1.4,1.68-1.9s1.53-.86,2.42-1.07c.89-.22,1.8-.28,2.74-.19s1.81.35,2.61.76c.28.14.57.29.87.44.29.15.56.3.79.44l3.6-7.04c.3-.59.48-1.06.53-1.41.05-.36-.04-.66-.3-.92-.25-.26-.69-.54-1.32-.87-.04-.02-.03-.09.03-.21s.11-.17.15-.15c.53.27,1.11.58,1.75.93.64.35,1.34.72,2.11,1.11.73.37,1.43.72,2.09,1.03.67.32,1.26.61,1.79.88.06.03.06.11,0,.23-.06.12-.12.17-.18.13-.63-.32-1.12-.51-1.47-.56-.36-.05-.67.04-.93.29s-.55.66-.85,1.25l-7.18,14.04c-.3.59-.47,1.05-.52,1.4s.05.65.3.92c.25.27.68.56,1.31.88.04.02.03.09-.03.21-.06.12-.11.17-.15.15-.53-.27-1.11-.58-1.74-.94s-1.31-.73-2.04-1.1c-.61-.31-1.28-.62-2.03-.92-.75-.31-1.46-.63-2.12-.97h0ZM148.19,431.39c.3.16.59.8.87,1.94.27,1.14.51,2.69.7,4.66s.36,4.3.5,6.97l-3.24-.55c-.32-3.37-.65-6.12-1.02-8.23s-.81-3.73-1.36-4.87c-.54-1.13-1.22-1.91-2.03-2.32-.04-.02-.03-.09.03-.21s.11-.17.15-.15c1.41.72,2.57,1.31,3.46,1.77.89.46,1.54.79,1.94.99h0ZM145.57,447.76c-.61,1.19-.95,2.16-1.03,2.92s.04,1.35.34,1.8.73.81,1.28,1.09c.47.24.87.36,1.21.37s.65-.1.92-.34c.27-.23.53-.58.76-1.04l3.1-6.07c-.26-.19-.55-.37-.86-.56-.31-.19-.59-.34-.83-.47-1.07-.55-1.96-.67-2.68-.37-.71.3-1.45,1.18-2.2,2.66h0Z"></path>
    <path class="cls-9" d="M115.15,409.8c-.09-.07-.1-.16-.02-.27s.17-.13.26-.07c.55.4,1.11.84,1.68,1.31.57.47,1.13.91,1.68,1.31.62.46,1.18.83,1.66,1.13.49.3,1.01.66,1.58,1.07.07.05.07.13-.01.24s-.16.14-.23.08c-.75-.55-1.3-.72-1.64-.5-.34.21-.61.94-.81,2.17l-2.48,15.11-3.08,1.38,14.3-8.06c1.3-.74,1.95-1.6,1.94-2.59,0-.99-.52-1.86-1.55-2.61-.09-.07-.1-.16-.02-.27s.17-.13.26-.07c.55.4,1.04.79,1.47,1.16.43.37,1,.81,1.69,1.32.71.52,1.3.92,1.76,1.2s1,.65,1.62,1.1c.07.05.07.13-.01.25-.08.11-.16.14-.23.08-.5-.36-1-.57-1.51-.62s-1.15.07-1.92.37c-.77.3-1.75.79-2.96,1.48l-15.56,8.75c-.06.04-.17.01-.32-.08-.15-.1-.21-.19-.18-.28l3.02-18.56c.19-1.18.31-2.15.36-2.88.05-.74,0-1.32-.12-1.74-.13-.42-.34-.74-.64-.95h0ZM123.1,427.73l-.97.47-5.66-4.14.37-.91,6.27,4.59Z"></path>
    <path class="cls-9" d="M82.17,403.09c-.47.46-.78.85-.94,1.18-.16.33-.14.68.05,1.07.19.39.57.87,1.14,1.46.05.05.02.12-.07.22s-.17.12-.22.07c-.41-.42-.87-.92-1.38-1.48s-1.13-1.23-1.86-1.97c-.57-.58-1.15-1.15-1.74-1.71-.59-.55-1.09-1.04-1.5-1.46-.05-.05-.02-.12.07-.22s.17-.12.22-.07c.52.54.97.9,1.32,1.09.36.19.7.21,1.02.07.32-.14.72-.44,1.19-.9l11.28-11.02c.47-.46.78-.85.94-1.18.16-.33.14-.67-.05-1.02s-.54-.8-1.07-1.34c-.05-.05-.02-.12.07-.22s.17-.12.22-.07c.41.42.89.93,1.44,1.52.55.59,1.11,1.18,1.68,1.77.73.75,1.37,1.38,1.92,1.91.55.53,1.03,1,1.44,1.43.05.05.02.12-.07.22s-.17.12-.22.07c-.57-.58-1.04-.98-1.41-1.2-.37-.21-.72-.24-1.05-.1-.33.15-.73.45-1.2.91l-11.23,10.98h0ZM103.74,402.69l-11.28,11.02c-.47.46-.78.85-.93,1.17-.15.32-.13.66.04,1.01s.52.8,1.04,1.34c.05.05.02.12-.07.22s-.17.12-.22.07c-.41-.42-.87-.91-1.37-1.47-.5-.56-1.04-1.13-1.61-1.72-.73-.75-1.38-1.39-1.95-1.93s-1.08-1.03-1.52-1.49c-.03-.03,0-.1.1-.19.1-.1.16-.13.19-.09.56.57,1.02.95,1.41,1.15s.74.23,1.08.08c.34-.14.74-.44,1.21-.9l11.23-10.98c.47-.46.78-.86.93-1.19s.12-.69-.08-1.06-.58-.84-1.14-1.41c-.03-.03,0-.1.1-.19.1-.1.16-.13.19-.09.46.47.95.99,1.48,1.56s1.15,1.23,1.88,1.97c.57.58,1.14,1.14,1.69,1.68.56.54,1.04,1.02,1.45,1.44.03.03,0,.1-.1.19s-.16.13-.19.09c-.54-.55-.98-.92-1.32-1.11-.34-.19-.68-.21-1.02-.07-.34.14-.74.44-1.21.9h0ZM96.9,406.9l-.68.67-10.31-10.55.68-.67,10.31,10.55Z"></path>
    <path class="cls-9" d="M67.85,354.45s.02-.1.13-.17.18-.1.21-.06c.33.49.7,1.05,1.1,1.68s.83,1.29,1.29,1.96c.47.7.92,1.34,1.35,1.93.43.59.81,1.13,1.14,1.61.04.06,0,.12-.11.2s-.19.09-.23.03c-.6-.88-1.11-1.37-1.52-1.46s-1.01.17-1.78.77l-12.07,9.14-3.23.09,21.73-4.25c.09-.03.17.01.26.13.08.12.1.23.05.32l-9.7,18.16c-.85,1.62-.94,2.93-.26,3.92.04.06,0,.12-.11.2s-.19.09-.23.03c-.27-.4-.54-.81-.81-1.26-.27-.44-.51-.82-.72-1.12-.33-.49-.63-.91-.9-1.26-.27-.35-.47-.63-.61-.84-.18-.26-.22-.53-.13-.8.09-.27.33-.77.71-1.49l7.55-14.35,3.49-.31-19.61,3.68c-.34.07-.6.07-.79.02-.19-.05-.35-.18-.49-.39-.13-.19-.25-.39-.37-.61-.12-.22-.28-.47-.47-.75-.41-.6-.77-1.11-1.07-1.52s-.6-.82-.88-1.24c-.04-.06,0-.12.11-.2.11-.08.19-.09.23-.03.59.86,1.2,1.38,1.83,1.54.63.16,1.31-.03,2.04-.58l12.34-9.36c.52-.41.88-.76,1.1-1.05.21-.3.27-.61.17-.96s-.34-.8-.72-1.36h0ZM78.31,376.83l-13.58,8.81-.5-.86,13.54-8.74c1.01-.66,1.66-1.4,1.96-2.21.3-.82.18-1.61-.34-2.38-.04-.06,0-.12.11-.2s.19-.09.23-.03c.28.41.56.84.83,1.29s.6.94.97,1.48c.41.6.79,1.14,1.14,1.61.35.48.67.92.95,1.33.04.06,0,.12-.11.2s-.19.09-.23.03c-.52-.77-1.23-1.18-2.12-1.24-.89-.06-1.84.24-2.85.9h0Z"></path>
    <path class="cls-9" d="M52.99,323.19c-.05-.1,0-.18.12-.24s.21-.03.26.07c.28.62.55,1.28.81,1.97s.53,1.35.81,1.97c.32.71.61,1.31.89,1.81s.56,1.07.84,1.71c.04.08,0,.15-.13.21-.12.06-.2.04-.24-.04-.38-.85-.77-1.26-1.17-1.24-.4.02-.99.52-1.78,1.49l-9.63,11.91-3.36-.32,16.42.05c1.49,0,2.48-.43,2.97-1.3.48-.86.46-1.88-.06-3.04-.05-.1,0-.18.12-.24s.21-.03.26.07c.28.62.51,1.2.71,1.74.19.54.46,1.2.82,1.98.36.81.67,1.44.94,1.91.26.47.55,1.05.87,1.76.04.08,0,.15-.13.21s-.2.04-.24-.04c-.25-.56-.59-.99-1.01-1.28-.42-.3-1.04-.5-1.85-.63-.81-.12-1.91-.18-3.31-.17l-17.85-.08c-.07,0-.15-.07-.24-.23-.08-.16-.09-.27-.02-.33l11.8-14.64c.75-.94,1.33-1.71,1.74-2.33s.66-1.14.75-1.57c.09-.43.07-.81-.08-1.14h0ZM51.04,342.71l-1.08-.07-2.88-6.4.77-.61,3.18,7.08Z"></path>
    <path class="cls-9" d="M26.95,309.92c-.55-2.01-.61-3.68-.18-4.98s1.3-2.14,2.62-2.5c.83-.23,1.68-.24,2.53-.04.86.2,1.67.56,2.43,1.06.76.51,1.43,1.14,1.98,1.89.56.75.96,1.57,1.2,2.44.08.31.17.62.26.94.09.32.16.61.21.88l7.62-2.09c.64-.17,1.1-.36,1.4-.56s.46-.48.48-.84c.02-.36-.06-.88-.25-1.56-.01-.04.05-.08.18-.12.13-.04.2-.03.21.01.16.57.32,1.21.49,1.91s.37,1.48.6,2.31c.22.79.43,1.54.65,2.24.22.71.4,1.34.56,1.91.02.07-.04.12-.17.15s-.21.02-.22-.04c-.19-.68-.38-1.17-.58-1.47s-.48-.46-.84-.49c-.36-.03-.86.04-1.5.22l-15.21,4.17c-.64.17-1.1.36-1.38.56-.29.2-.45.47-.48.84-.03.36.05.88.24,1.56.01.04-.05.08-.18.12-.13.04-.2.03-.21-.01-.16-.57-.31-1.21-.47-1.92s-.35-1.46-.56-2.25c-.18-.66-.41-1.37-.69-2.12-.28-.76-.52-1.5-.72-2.22h0ZM31.67,305.87c-1.29.35-2.24.76-2.85,1.21s-.97.94-1.1,1.47c-.13.53-.11,1.09.06,1.68.14.5.32.88.54,1.14s.51.41.87.45.78,0,1.29-.14l6.57-1.8c-.04-.32-.1-.66-.17-1.01-.07-.36-.15-.67-.22-.93-.32-1.16-.83-1.9-1.53-2.23-.7-.33-1.85-.27-3.45.17h0ZM45.53,296.76c.09.33-.19.98-.84,1.95s-1.64,2.19-2.97,3.66c-1.33,1.47-2.93,3.16-4.81,5.07l-1.78-2.76c2.28-2.51,4.07-4.61,5.39-6.3,1.31-1.69,2.21-3.12,2.68-4.28.47-1.17.58-2.18.34-3.06-.01-.04.05-.08.18-.12.13-.03.2-.03.21.01.42,1.53.76,2.78,1.03,3.74.27.96.46,1.66.58,2.1h0Z"></path>
    <path class="cls-9" d="M38.81,274.55c.65-.09,1.14-.21,1.46-.37.32-.16.52-.41.58-.77.07-.35.05-.88-.04-1.58,0-.07.05-.11.19-.13.13-.02.21,0,.22.07.08.59.16,1.24.23,1.96.07.72.17,1.51.28,2.37.11.81.23,1.58.35,2.32.12.74.22,1.4.3,1.99,0,.05-.06.08-.19.1-.13.02-.2,0-.21-.04-.09-.7-.22-1.21-.38-1.55-.16-.33-.42-.54-.77-.62-.35-.08-.86-.07-1.51.01l-15.63,2.11c-.65.09-1.13.22-1.44.38-.31.17-.5.44-.58.8s-.07.9.03,1.59c0,.05-.06.08-.19.1-.13.02-.2,0-.21-.04-.08-.58-.15-1.25-.22-2s-.15-1.53-.26-2.34c-.12-.85-.24-1.65-.37-2.37s-.24-1.37-.31-1.93c0-.07.05-.11.19-.13.13-.02.21,0,.22.07.09.67.23,1.18.41,1.51.18.33.45.53.8.6.35.07.86.06,1.51-.03l15.56-2.1h0Z"></path>
    <path class="cls-9" d="M22.17,255.15c.86-.02,1.61-.25,2.25-.71.64-.45,1.21-1.04,1.72-1.77s1.02-1.49,1.53-2.29c.53-.87,1.09-1.71,1.68-2.5s1.27-1.45,2.04-1.98,1.71-.8,2.8-.82c1.2-.02,2.27.28,3.19.91.92.63,1.64,1.49,2.18,2.58.53,1.09.81,2.34.83,3.75.01.68-.04,1.39-.17,2.13-.12.74-.28,1.41-.47,2.02-.19.6-.4,1.05-.62,1.32-.07.09-.14.17-.22.24-.08.07-.22.11-.42.11l-5.41.2c-.11.03-.18-.03-.19-.15s.03-.2.12-.22c.7-.35,1.44-.74,2.21-1.16s1.49-.9,2.14-1.42c.65-.52,1.18-1.11,1.59-1.75.41-.64.6-1.37.59-2.19,0-.52-.11-1.02-.3-1.49-.19-.47-.53-.86-1.01-1.16-.48-.3-1.14-.44-1.98-.43-1.07.02-1.98.27-2.73.76s-1.41,1.11-1.98,1.88c-.57.76-1.1,1.55-1.61,2.38-.51.81-1.03,1.58-1.58,2.31-.54.74-1.17,1.34-1.88,1.81s-1.56.71-2.56.73c-1.27.02-2.32-.32-3.14-1.02-.82-.7-1.43-1.6-1.84-2.69-.4-1.09-.62-2.21-.64-3.35-.01-.82.04-1.64.18-2.46.13-.82.3-1.47.49-1.95.09-.23.19-.37.3-.43.11-.06.24-.09.37-.09l5.01-.09c.07,0,.12.05.16.15.03.1.02.18-.05.22-.27.14-.71.34-1.34.6-.62.26-1.27.6-1.94,1.02-.67.42-1.25.95-1.73,1.6-.48.64-.71,1.42-.69,2.33,0,.57.13,1.08.37,1.54.24.46.58.83,1.02,1.11s1.02.41,1.73.4h0Z"></path>
    <path class="cls-9" d="M37.8,229.75l-15.63-2.09c-.65-.09-1.15-.09-1.49-.01-.34.08-.6.3-.77.65-.17.36-.31.9-.41,1.65,0,.07-.08.09-.22.07-.13-.02-.2-.06-.19-.13.08-.58.18-1.25.32-1.98.13-.74.25-1.51.36-2.32.14-1.04.24-1.94.31-2.72.07-.78.15-1.49.23-2.12,0-.04.08-.06.21-.04.13.02.2.05.19.1-.1.79-.12,1.39-.04,1.82.08.42.28.73.6.91s.81.31,1.46.4l15.57,2.08c.65.09,1.16.09,1.51,0s.62-.33.78-.72c.17-.39.3-.98.41-1.77,0-.04.08-.06.21-.04.13.02.2.05.19.1-.09.65-.19,1.36-.32,2.12-.13.76-.26,1.66-.4,2.7-.11.81-.2,1.6-.28,2.37s-.16,1.44-.24,2.03c0,.05-.08.06-.21.04-.13-.02-.2-.05-.19-.1.1-.77.12-1.34.06-1.73-.06-.39-.25-.67-.57-.85s-.81-.31-1.46-.4h0ZM24.2,213.01c-.65-.09-1.16-.09-1.51-.01-.35.08-.63.31-.81.7s-.34.99-.45,1.8c0,.07-.08.09-.22.07-.13-.02-.2-.06-.19-.13.08-.58.18-1.25.32-2s.27-1.64.41-2.68c.11-.81.2-1.62.27-2.42s.15-1.5.23-2.08c0-.07.08-.09.22-.07.13.02.2.06.19.13-.1.74-.11,1.31-.04,1.71.07.4.27.68.57.85.31.17.79.3,1.44.38l15.63,2.09c.65.09,1.16.09,1.51.01.35-.08.61-.3.78-.67.17-.37.3-.92.4-1.67,0-.07.08-.09.22-.07.13.02.2.06.19.13-.08.59-.18,1.28-.31,2.07s-.25,1.6-.36,2.41c-.14,1.04-.25,1.93-.33,2.69s-.16,1.43-.24,2.01c0,.07-.08.09-.22.07-.13-.02-.2-.06-.19-.13.11-.81.13-1.43.07-1.85-.06-.42-.25-.71-.57-.88-.32-.17-.81-.3-1.46-.38l-15.57-2.08h0ZM30.27,226.95l-.94-.13,1.96-14.62.94.13-1.96,14.62Z"></path>
    <path class="cls-9" d="M45.27,190.61c.64.17,1.13.25,1.49.24.36-.02.64-.18.84-.47s.39-.79.58-1.47c.02-.07.09-.08.22-.04.13.04.19.09.17.15-.16.57-.34,1.2-.56,1.9-.21.7-.44,1.46-.67,2.29-.22.79-.41,1.55-.59,2.28-.18.73-.34,1.38-.5,1.95-.01.04-.08.05-.21.01-.13-.04-.19-.08-.18-.12.19-.68.27-1.2.26-1.57-.02-.37-.17-.66-.47-.87-.3-.21-.76-.4-1.4-.58l-15.2-4.2c-.64-.17-1.13-.25-1.48-.21-.35.03-.63.2-.85.51-.21.31-.41.8-.6,1.48-.01.04-.08.05-.21.01-.13-.04-.19-.08-.18-.12.16-.57.35-1.21.58-1.92.23-.71.46-1.46.67-2.25.23-.83.43-1.61.59-2.33s.32-1.35.47-1.9c.02-.07.09-.08.22-.04.13.03.19.09.17.15-.18.66-.25,1.17-.22,1.55.04.37.2.66.5.86.3.2.77.39,1.4.56l15.14,4.18h0Z"></path>
    <path class="cls-9" d="M69.42,140.21c.05-.1.14-.12.26-.06s.15.15.1.25c-.32.6-.67,1.22-1.05,1.85-.38.63-.74,1.25-1.05,1.85-.36.68-.65,1.29-.88,1.81s-.5,1.1-.83,1.72c-.04.08-.12.09-.24.03-.12-.06-.16-.13-.12-.22.44-.82.52-1.39.26-1.69-.26-.3-1.02-.47-2.27-.48l-15.31-.26-1.81-2.84,10.06,12.98c.92,1.18,1.87,1.69,2.85,1.54.98-.15,1.76-.79,2.36-1.91.05-.1.14-.12.26-.06s.15.15.1.25c-.32.6-.63,1.14-.94,1.62-.3.48-.66,1.1-1.06,1.87-.41.78-.72,1.42-.93,1.91s-.49,1.08-.85,1.76c-.04.08-.12.09-.24.03-.12-.06-.16-.13-.12-.22.29-.54.42-1.07.39-1.58-.02-.51-.24-1.13-.64-1.84-.4-.71-1.04-1.62-1.9-2.72l-10.92-14.12c-.05-.05-.04-.16.04-.33.07-.17.16-.24.25-.22l18.8.29c1.2.02,2.17,0,2.9-.07s1.31-.18,1.7-.37c.4-.19.68-.44.85-.77h0ZM52.83,150.68l-.6-.9,3.28-6.21.95.24-3.63,6.87h0Z"></path>
    <path class="cls-9" d="M65.81,108.42c.57-.77,1.25-1.54,2.03-2.33.79-.79,1.49-1.35,2.1-1.68.18-.12.33-.18.45-.17.12,0,.29.08.5.21l4.04,2.5c.05.04.06.11.02.2-.04.1-.11.13-.21.12-1.85-.44-3.56-.45-5.13-.02s-2.88,1.35-3.92,2.75c-.91,1.22-1.37,2.48-1.38,3.79s.37,2.59,1.15,3.84c.78,1.25,1.9,2.42,3.36,3.5,1.26.94,2.55,1.66,3.88,2.17s2.62.8,3.87.85c1.25.05,2.4-.13,3.46-.57,1.06-.43,1.94-1.12,2.65-2.07.87-1.17,1.26-2.49,1.18-3.98-.08-1.49-.65-3.19-1.71-5.12-.05-.09-.03-.17.06-.25s.16-.1.21-.06l3.41,3.18c.19.2.3.35.33.44.03.09.02.25-.03.47-.31,1.07-.71,2.08-1.2,3.03-.49.95-1.03,1.83-1.62,2.63-1.32,1.77-2.71,3.08-4.19,3.93-1.47.86-2.95,1.35-4.42,1.48-1.47.13-2.87,0-4.2-.41-1.32-.41-2.5-.99-3.52-1.75-1.35-1.01-2.35-2.18-3.01-3.54-.66-1.36-1.02-2.8-1.07-4.32-.05-1.53.17-3.05.66-4.56.49-1.52,1.24-2.94,2.23-4.27h0Z"></path>
    <path class="cls-9" d="M111.58,90.16c.08-.08.17-.07.27.03.1.1.1.19.02.27-.49.47-1.01.95-1.57,1.44-.56.48-1.08.96-1.57,1.44-.55.54-1.02,1.02-1.39,1.45-.37.43-.81.89-1.32,1.38-.07.06-.14.05-.24-.05-.1-.1-.11-.18-.04-.24.67-.65.92-1.16.77-1.53-.16-.37-.83-.76-2.01-1.16l-14.49-4.96-.85-3.26,5.58,15.44c.51,1.4,1.26,2.18,2.23,2.34.98.16,1.92-.21,2.83-1.1.08-.08.17-.07.27.03.1.1.1.19.02.27-.49.47-.95.9-1.39,1.26-.44.36-.97.85-1.58,1.45-.64.62-1.13,1.13-1.48,1.53-.35.4-.8.88-1.36,1.41-.07.06-.14.05-.24-.05-.1-.1-.11-.18-.04-.24.44-.43.73-.89.86-1.39.13-.5.12-1.15-.05-1.95s-.49-1.86-.97-3.17l-6.04-16.8c-.03-.07.01-.16.14-.3.12-.13.22-.18.3-.13l17.79,6.06c1.14.38,2.06.66,2.78.83.72.17,1.3.23,1.73.17s.78-.21,1.04-.47h0ZM92.58,95.02l-.3-1.04,5.03-4.9.84.52-5.56,5.42h0Z"></path>
    <path class="cls-9" d="M128.23,78.26c-.6.42-1.36.91-2.29,1.48-.93.57-1.77,1.11-2.52,1.64-.67.47-1.31.93-1.91,1.38-.6.45-1.14.84-1.63,1.18-.04.03-.1-.02-.17-.13s-.1-.18-.06-.21c.58-.4.98-.75,1.2-1.05.22-.3.29-.62.2-.97-.09-.35-.33-.8-.71-1.34l-9.05-12.92c-.38-.54-.71-.91-.99-1.12s-.6-.26-.96-.16c-.36.1-.82.34-1.38.74-.06.04-.12,0-.2-.11-.08-.11-.09-.19-.03-.23.48-.34,1.03-.7,1.65-1.09s1.27-.82,1.95-1.31c.67-.47,1.39-1.01,2.15-1.61.77-.6,1.44-1.11,2.02-1.51,1.93-1.35,3.88-2.16,5.83-2.42,1.95-.26,3.78-.03,5.48.7,1.7.72,3.11,1.88,4.23,3.49.98,1.4,1.62,2.82,1.92,4.29s.3,2.89,0,4.28c-.3,1.39-.86,2.69-1.66,3.89-.81,1.2-1.83,2.24-3.08,3.11h0ZM127.51,77.81c1.17-.82,2-1.85,2.49-3.09.49-1.24.58-2.63.28-4.17-.3-1.54-1.04-3.15-2.23-4.84-1.11-1.58-2.35-2.84-3.73-3.79-1.38-.94-2.78-1.49-4.18-1.63-1.4-.14-2.71.21-3.92,1.06-1.08.76-1.78,1.4-2.1,1.93-.32.53-.22,1.18.32,1.94l8.79,12.56c.48.69,1.02,1.07,1.62,1.15.6.08,1.48-.29,2.65-1.11h0Z"></path>
    <path class="cls-9" d="M161.66,58.76l-13.48,6.71c-.06.03-.12-.02-.18-.14-.06-.12-.06-.2,0-.23.63-.31,1.07-.6,1.33-.85.25-.25.36-.56.31-.91-.05-.36-.22-.83-.52-1.42l-7.03-14.12c-.29-.59-.57-1.01-.81-1.25-.25-.24-.55-.35-.91-.31s-.86.22-1.49.53c-.06.03-.12-.02-.18-.14-.06-.12-.06-.2,0-.23l12.93-6.44c.2-.1.35-.06.44.12l2.08,4.03s-.02.1-.11.17c-.09.07-.17.09-.24.04-.92-1.04-1.91-1.64-2.96-1.82-1.05-.17-2.21.05-3.47.68l-.91.46c-.41.2-.71.43-.92.67-.21.24-.31.52-.31.82s.09.64.27,1.01l6.95,13.97c.19.39.4.69.64.9s.48.33.75.35c.26.02.56-.05.88-.21l1.01-.5c1.58-.79,2.69-1.75,3.32-2.87.63-1.13.83-2.48.6-4.07,0-.07.05-.12.17-.14s.2-.02.22.02c.21.63.49,1.36.83,2.19.34.83.68,1.6,1.02,2.29.15.3.07.53-.23.68h0ZM156.57,52.81c-.41-.83-1.06-1.33-1.92-1.5-.87-.16-1.91.06-3.13.67l-4.12,2.05-.43-.85,4.15-2.07c1.2-.6,2.01-1.26,2.42-1.98.41-.73.44-1.44.09-2.15-.03-.06,0-.12.12-.17.11-.06.18-.05.21,0,.34.67.59,1.2.77,1.58.18.38.37.77.57,1.18.25.51.52,1,.79,1.47.27.47.56,1,.85,1.59.02.04-.03.09-.15.15-.12.06-.19.07-.21.03h0Z"></path>
    <path class="cls-9" d="M199.29,45s.09.04.13.17.04.2,0,.22c-.56.18-1.21.37-1.93.57-.72.2-1.47.42-2.25.67-.8.25-1.55.5-2.23.73-.69.24-1.31.44-1.88.62-.07.02-.12-.03-.16-.17s-.03-.2.04-.23c1.02-.32,1.63-.66,1.84-1.04.2-.37.13-1.01-.23-1.93l-5.25-14.2.85-3.12-2.23,22.03c0,.09-.06.16-.2.21-.14.04-.25.03-.32-.04l-14.56-14.55c-1.31-1.28-2.53-1.75-3.68-1.39-.07.02-.12-.03-.16-.17s-.03-.2.04-.23c.46-.14.94-.28,1.44-.41.5-.13.93-.25,1.28-.36.56-.18,1.05-.34,1.47-.49.42-.15.74-.27.98-.34.3-.1.57-.06.8.11s.64.54,1.22,1.12l11.54,11.39-.71,3.43,2.16-19.84c.03-.34.1-.6.21-.76.1-.16.27-.28.51-.36.22-.07.45-.13.69-.18.24-.05.53-.13.86-.23.69-.22,1.28-.41,1.76-.59.48-.17.96-.34,1.44-.48.07-.02.12.03.16.17s.03.2-.04.23c-1,.31-1.67.74-2,1.3s-.35,1.26-.03,2.12l5.38,14.52c.24.62.47,1.07.69,1.35s.51.44.87.44c.36,0,.86-.09,1.51-.29h0ZM174.84,48.52l-4.49-15.55.96-.23,4.44,15.49c.34,1.16.85,1.99,1.55,2.51s1.49.64,2.38.37c.07-.02.12.03.16.17s.03.2-.04.23c-.48.15-.97.29-1.47.42-.5.13-1.07.3-1.7.5-.69.22-1.32.42-1.88.62s-1.07.37-1.55.52c-.07.02-.12-.03-.16-.17s-.03-.2.04-.23c.89-.28,1.49-.83,1.8-1.67.31-.83.3-1.83-.04-2.99h0Z"></path>
    <path class="cls-9" d="M216.87,32.94l-6.24-7.24c-1.1-1.27-1.94-2.1-2.53-2.48s-1.07-.56-1.43-.5c-.07,0-.11-.05-.13-.19-.02-.13,0-.21.07-.22.34-.05.69-.08,1.05-.1.37-.02.72-.05,1.05-.1.63-.09,1.3-.19,2.02-.3s1.4-.22,2.03-.34c.64-.11,1.16-.2,1.56-.25.04,0,.08.06.1.19.02.13,0,.21-.04.21-.65.09-1.01.37-1.07.84s.15.97.64,1.53l5.93,6.98-3.03,1.97h0ZM216.49,31.75l3.7-.83,1.12,8.03c.09.65.22,1.14.38,1.46s.42.51.77.58c.35.07.88.05,1.58-.05.07,0,.11.05.13.19.02.13,0,.21-.07.22-.58.08-1.23.16-1.95.24-.71.08-1.5.17-2.35.3-.81.11-1.58.23-2.32.36-.74.13-1.4.23-1.98.31-.04,0-.08-.06-.1-.19-.02-.13,0-.2.04-.21.7-.1,1.21-.23,1.54-.39s.54-.42.61-.77c.08-.35.07-.86-.02-1.51l-1.08-7.72h0ZM218.8,32.53l3.16-7.63c.57-1.36.71-2.43.43-3.19-.28-.76-.95-1.07-2-.92-.07,0-.11-.05-.13-.19-.02-.13,0-.21.07-.22.72-.1,1.4-.18,2.03-.23s1.48-.16,2.54-.3c.56-.08,1.01-.16,1.36-.24s.76-.16,1.26-.23c.04,0,.08.06.1.19.02.13,0,.2-.04.21-.45.06-.96.34-1.54.82-.57.48-1.13,1.11-1.66,1.87-.54.76-1.01,1.63-1.42,2.61l-3.36,7.93-.79-.47Z"></path>
    <path class="cls-9" d="M269.73,41.42c-1.63-.17-3.07-.61-4.33-1.33s-2.31-1.63-3.14-2.75c-.83-1.11-1.43-2.36-1.8-3.73-.37-1.38-.47-2.81-.32-4.3.19-1.83.72-3.39,1.58-4.7.86-1.3,1.92-2.35,3.19-3.14,1.27-.79,2.63-1.34,4.08-1.64,1.45-.3,2.86-.38,4.24-.24,1.67.18,3.14.63,4.39,1.37,1.26.74,2.3,1.66,3.12,2.78s1.4,2.34,1.75,3.68.45,2.69.31,4.04c-.17,1.58-.64,3.02-1.41,4.3s-1.76,2.38-2.97,3.28-2.55,1.56-4.05,1.99c-1.5.43-3.04.55-4.65.38h0ZM270.93,40.7c1.26.13,2.43-.11,3.5-.73,1.07-.62,1.97-1.6,2.69-2.94.72-1.34,1.19-3.01,1.4-5.02.22-2.08.1-3.96-.36-5.66-.46-1.69-1.23-3.07-2.3-4.13s-2.44-1.68-4.09-1.85c-2.05-.22-3.72.4-4.99,1.84-1.27,1.44-2.05,3.54-2.34,6.3-.17,1.65-.14,3.19.1,4.62.24,1.43.65,2.69,1.23,3.79.58,1.1,1.31,1.98,2.19,2.63s1.87,1.04,2.98,1.15h0Z"></path>
    <path class="cls-9" d="M293.65,44.74c-.07-.02-.08-.09-.05-.22s.08-.19.15-.17c.75.2,1.32.29,1.71.27.39-.01.69-.17.9-.47s.39-.77.56-1.4l3.99-15.26c.17-.64.24-1.13.21-1.48-.03-.35-.19-.62-.49-.83-.3-.21-.79-.4-1.47-.58-.07-.02-.08-.09-.05-.22.03-.13.08-.19.15-.17l13.97,3.66c.22.06.3.18.25.38l-1.08,4.4s-.07.06-.19.06-.19-.05-.21-.13c-.01-1.39-.36-2.49-1.03-3.32-.68-.82-1.7-1.41-3.06-1.77l-.99-.26c-.66-.17-1.18-.16-1.56.05s-.65.6-.81,1.2l-3.95,15.09c-.17.66-.22,1.18-.13,1.57.09.39.37.71.84.98s1.2.53,2.19.78c.04.01.05.08.01.21-.03.13-.07.19-.12.18-.75-.2-1.55-.42-2.41-.67-.86-.25-1.88-.53-3.04-.83-.79-.21-1.56-.4-2.32-.57-.75-.17-1.41-.34-1.99-.48h0ZM308.04,41.05c.23-.88.07-1.67-.47-2.36-.55-.69-1.47-1.21-2.76-1.55l-4.09-1.07.24-.92,4.12,1.08c1.3.34,2.33.37,3.11.08.78-.29,1.27-.82,1.47-1.59.01-.04.08-.05.21-.01.13.03.19.07.18.12-.2.75-.35,1.32-.47,1.73-.12.4-.23.83-.35,1.26-.14.55-.27,1.09-.39,1.62-.12.53-.26,1.11-.42,1.72-.02.07-.09.08-.22.05-.13-.03-.19-.08-.17-.15h0Z"></path>
    <path class="cls-9" d="M347.72,53.18l3.5,1.47-3.74,7.19c-.3.58-.48,1.05-.54,1.41-.06.35.04.66.29.92.25.26.69.55,1.31.87.06.03.06.11,0,.23-.06.12-.13.17-.18.13-.52-.27-1.1-.58-1.72-.93s-1.32-.72-2.08-1.12c-.73-.38-1.43-.73-2.1-1.05s-1.28-.62-1.8-.9c-.04-.02-.03-.09.03-.21.06-.12.11-.17.16-.15.62.32,1.12.52,1.48.58.37.06.68-.03.95-.27.27-.24.55-.66.86-1.24l3.59-6.92h0ZM347.34,54.36l-.89-9.52c-.16-1.67-.37-2.83-.62-3.49-.26-.66-.55-1.07-.87-1.24-.06-.03-.06-.11,0-.23.06-.12.13-.17.18-.13.3.16.61.34.91.53.31.2.61.37.91.53.56.29,1.17.6,1.82.93.65.33,1.27.63,1.85.91s1.06.51,1.42.7c.04.02.03.09-.03.21-.06.12-.11.17-.16.15-.58-.3-1.04-.28-1.36.06-.32.35-.44.88-.36,1.62l.79,9.12-3.61-.15h0ZM349.15,55.15l7-4.39c1.25-.78,1.98-1.57,2.2-2.35.21-.78-.15-1.42-1.1-1.91-.06-.03-.06-.11,0-.23.06-.12.12-.17.18-.13.64.34,1.24.66,1.79.99s1.3.73,2.24,1.22c.5.26.92.46,1.25.59s.71.31,1.16.54c.04.02.03.09-.03.21-.06.12-.11.17-.16.15-.4-.21-.98-.28-1.73-.23-.75.06-1.56.24-2.44.56-.88.31-1.77.74-2.67,1.3l-7.34,4.52-.37-.84h0Z"></path>
    <path class="cls-9" d="M370.97,80.25c-1.32-.97-2.35-2.07-3.08-3.32s-1.18-2.57-1.33-3.95c-.16-1.38-.05-2.76.32-4.13.37-1.38,1-2.67,1.88-3.88,1.09-1.48,2.33-2.58,3.72-3.27s2.84-1.07,4.34-1.11,2.95.17,4.35.63c1.41.47,2.67,1.11,3.78,1.92,1.36.99,2.39,2.12,3.11,3.39.72,1.27,1.15,2.59,1.3,3.97s.04,2.73-.33,4.06c-.37,1.33-.96,2.55-1.76,3.65-.94,1.28-2.07,2.29-3.38,3.01s-2.72,1.17-4.22,1.35c-1.49.17-2.99.07-4.5-.31-1.51-.38-2.91-1.05-4.21-2h0ZM372.38,80.23c1.03.75,2.16,1.13,3.39,1.13,1.24,0,2.5-.39,3.8-1.19,1.3-.8,2.54-2.01,3.74-3.64,1.23-1.69,2.08-3.38,2.53-5.07.45-1.7.48-3.27.08-4.73-.4-1.46-1.26-2.68-2.6-3.66-1.67-1.22-3.41-1.53-5.24-.92s-3.55,2.03-5.19,4.27c-.98,1.34-1.72,2.69-2.24,4.04s-.8,2.65-.84,3.9c-.05,1.24.14,2.37.57,3.37.43,1.01,1.1,1.84,2,2.49h0Z"></path>
    <path class="cls-9" d="M398.68,104.39c-1.79-1.84-2.99-3.75-3.58-5.74s-.64-3.91-.14-5.75c.5-1.84,1.47-3.46,2.9-4.86,1.2-1.17,2.52-2.01,3.96-2.51s2.92-.67,4.44-.53,3.03.59,4.51,1.33,2.87,1.77,4.16,3.08c.71.73,1.4,1.54,2.05,2.45.66.9,1.12,1.7,1.38,2.39.09.19.12.35.09.46-.03.11-.13.26-.3.45l-3.08,3.63s-.12.04-.22-.03c-.1-.07-.13-.15-.09-.24.69-1.76.91-3.48.64-5.17s-1.04-3.18-2.31-4.48c-1.65-1.69-3.48-2.38-5.49-2.09-2.01.3-3.99,1.4-5.94,3.3-1.64,1.6-2.81,3.29-3.5,5.07-.7,1.78-.92,3.48-.66,5.12.25,1.64.98,3.08,2.19,4.31.6.62,1.16,1.04,1.67,1.27.51.23,1.06.23,1.65-.02s1.3-.77,2.13-1.58c.78-.76,1.31-1.37,1.59-1.81s.31-.9.09-1.35c-.22-.45-.7-1.05-1.42-1.8-.1-.1-.08-.21.05-.34.13-.13.24-.15.31-.07,1.03,1.18,1.98,2.24,2.87,3.15.88.92,1.84,1.86,2.87,2.82.08.08.06.18-.05.29s-.21.13-.29.04c-.25-.29-.5-.44-.74-.44s-.58.18-1.02.54-1.09.97-1.95,1.81c-.54.52-.92.93-1.15,1.21s-.39.5-.49.64c-.1.14-.21.28-.34.4-.1.1-.18.14-.25.13-.07,0-.18-.05-.32-.14-1.07-.7-2.15-1.48-3.24-2.34-1.09-.86-2.08-1.74-2.97-2.65h0Z"></path>
    <path class="cls-9" d="M426.68,138.63c.07.09.04.18-.07.26-.11.08-.2.07-.27-.02-.39-.56-.78-1.15-1.17-1.78-.39-.63-.77-1.22-1.17-1.78-.44-.63-.85-1.17-1.21-1.61-.36-.44-.75-.95-1.15-1.52-.05-.07-.02-.15.09-.23.11-.08.19-.08.24,0,.54.76,1,1.1,1.39,1,.39-.1.88-.69,1.47-1.8l7.22-13.5,3.36-.31-16.14,3.03c-1.47.28-2.36.89-2.67,1.83s-.1,1.93.63,2.97c.07.09.04.18-.07.26-.11.08-.2.07-.27-.02-.39-.56-.73-1.08-1.02-1.57s-.68-1.09-1.18-1.8c-.51-.73-.94-1.29-1.28-1.71-.34-.41-.74-.93-1.18-1.57-.05-.07-.02-.15.09-.23.11-.08.19-.08.25,0,.35.5.76.86,1.23,1.07.47.21,1.11.3,1.93.27.82-.03,1.91-.18,3.28-.45l17.55-3.27c.07-.02.16.04.27.18.11.14.14.25.08.32l-8.84,16.59c-.56,1.06-.98,1.93-1.27,2.61-.28.68-.43,1.24-.44,1.68-.01.44.09.81.3,1.1h0ZM424.93,119.1l1.07-.13,4.03,5.75-.64.74-4.46-6.36h0Z"></path>
    <path class="cls-9" d="M448.05,185.47c.04.11,0,.18-.13.23s-.21.02-.25-.09c-.24-.64-.47-1.31-.69-2.01-.22-.71-.45-1.38-.69-2.01-.27-.72-.53-1.34-.78-1.85s-.49-1.1-.74-1.76c-.03-.09.02-.15.14-.2.13-.05.21-.03.24.06.33.87.7,1.31,1.1,1.31s1.02-.46,1.86-1.38l10.31-11.32,3.33.52-16.39-1.02c-1.49-.09-2.5.28-3.04,1.12-.53.84-.57,1.85-.12,3.03.04.11,0,.18-.13.23s-.21.02-.25-.09c-.24-.64-.44-1.23-.6-1.78-.16-.55-.39-1.22-.7-2.03-.31-.83-.59-1.48-.82-1.97-.23-.48-.49-1.08-.76-1.81-.03-.08.02-.15.14-.2.13-.05.21-.03.24.06.22.57.53,1.02.93,1.34s1.01.57,1.81.73,1.9.29,3.29.37l17.82,1.14c.07,0,.14.08.22.24.07.17.07.27,0,.33l-12.64,13.91c-.81.89-1.43,1.63-1.87,2.22-.44.59-.72,1.1-.84,1.52-.12.42-.11.8.01,1.14h0ZM451.15,166.1l1.07.14,2.49,6.56-.81.56-2.76-7.26h0Z"></path>
    <path class="cls-9" d="M455.4,197.94l15.85-3.25.14,1.01-15.78,3.23c-1.18.24-2.06.68-2.65,1.31-.59.63-.8,1.38-.62,2.25,0,.04-.05.08-.19.11-.13.03-.2.02-.21-.03-.1-.49-.19-1-.28-1.53-.09-.53-.19-1.1-.32-1.73-.14-.67-.28-1.32-.43-1.95-.15-.63-.28-1.21-.39-1.75-.01-.07.05-.11.18-.14s.21,0,.22.06c.2.98.7,1.68,1.51,2.11.81.43,1.8.52,2.98.28h0ZM454.14,215.93c-.07.01-.12-.03-.15-.13s-.04-.17-.03-.22l15.35-20.29c.75-.99,1.23-1.79,1.44-2.42.21-.62.26-1.21.14-1.77,0-.04.05-.08.19-.11s.2-.02.21.03c.09.44.17.9.25,1.38s.15.91.23,1.31c.17.8.32,1.52.48,2.16.15.64.27,1.14.34,1.49.06.29-.03.53-.25.73s-.61.63-1.14,1.29l-11.61,15.14-5.45,1.39h0ZM471.23,212.44l-17.09,3.5.8-1.17,16.08-3.29c1.18-.24,2.07-.68,2.67-1.31s.81-1.38.64-2.25c0-.04.05-.08.19-.11.13-.03.2-.02.21.03.1.49.19,1,.26,1.53.07.53.17,1.11.3,1.73.12.6.26,1.19.41,1.76.15.57.28,1.1.38,1.59,0,.04-.05.08-.19.11-.13.03-.2.02-.21-.03-.18-.89-.68-1.52-1.48-1.89-.81-.37-1.8-.43-2.98-.19h0Z"></path>
    <path class="cls-9" d="M456.71,239.51c-.03-.73-.03-1.64,0-2.73.03-1.09.02-2.09-.02-3-.03-.82-.07-1.6-.13-2.35-.05-.75-.09-1.42-.11-2.01,0-.05.07-.07.2-.08.13,0,.2.01.21.06.03.7.1,1.23.23,1.58s.36.58.71.69c.34.11.85.15,1.51.13l15.76-.63c.66-.03,1.15-.1,1.47-.23.32-.13.54-.37.65-.73.11-.36.15-.87.13-1.56,0-.07.07-.1.2-.11.14,0,.2.03.21.09.02.59.03,1.25.03,1.98,0,.73,0,1.51.04,2.35.03.82.1,1.71.19,2.69.1.97.16,1.81.19,2.52.09,2.36-.28,4.43-1.12,6.21-.84,1.78-2.02,3.19-3.55,4.23-1.53,1.04-3.27,1.6-5.22,1.67-1.7.07-3.25-.17-4.65-.7s-2.6-1.31-3.6-2.31c-1.01-1.01-1.8-2.17-2.37-3.5-.58-1.33-.89-2.75-.95-4.27h0ZM457.48,239.13c.06,1.43.48,2.69,1.26,3.77.78,1.08,1.9,1.91,3.36,2.49,1.45.58,3.22.83,5.28.74,1.93-.08,3.66-.44,5.21-1.09,1.54-.65,2.75-1.53,3.63-2.63.88-1.1,1.28-2.39,1.23-3.87-.05-1.32-.21-2.25-.49-2.81-.27-.56-.87-.82-1.8-.78l-15.32.61c-.84.03-1.45.28-1.85.74-.39.46-.56,1.4-.5,2.83h0Z"></path>
    <path class="cls-9" d="M450.48,303.39c-.02.11-.1.15-.24.13s-.19-.1-.17-.21c.14-.67.31-1.36.5-2.07.2-.71.37-1.4.5-2.07.16-.76.27-1.42.35-1.98.07-.57.18-1.19.33-1.88.02-.09.1-.12.23-.09s.19.09.17.18c-.19.91-.12,1.48.22,1.7.34.22,1.11.17,2.31-.16l14.79-3.95,2.52,2.24-13.24-9.72c-1.21-.88-2.26-1.11-3.16-.7s-1.48,1.24-1.74,2.49c-.02.11-.1.15-.24.13s-.19-.1-.17-.21c.14-.67.29-1.27.45-1.82.16-.55.33-1.24.51-2.09.18-.87.31-1.57.37-2.1.07-.53.18-1.18.34-1.93.02-.09.1-.12.23-.09s.19.09.17.17c-.13.6-.11,1.14.06,1.63.16.49.54,1.02,1.13,1.6s1.44,1.27,2.57,2.09l14.38,10.58c.06.03.08.14.05.32s-.09.27-.18.27l-18.16,4.88c-1.16.31-2.08.6-2.78.86s-1.2.54-1.53.83c-.33.29-.53.61-.6.97h0ZM463.55,288.77l.83.7-1.45,6.87-.98.04,1.6-7.6Z"></path>
    <path class="cls-9" d="M454.76,322.35l-1.02,3.65-7.61-2.81c-.62-.23-1.11-.35-1.47-.36-.36-.01-.65.12-.87.4-.23.28-.46.75-.7,1.41-.02.06-.1.07-.23.03-.13-.05-.18-.1-.16-.17.2-.55.44-1.16.71-1.83.27-.66.55-1.4.85-2.21.28-.77.54-1.51.78-2.22.24-.71.46-1.34.66-1.9.02-.04.09-.04.22,0,.13.05.18.09.17.13-.24.66-.37,1.18-.39,1.54-.02.37.12.67.39.91.28.24.72.47,1.34.69l7.32,2.7h0ZM452.99,324.02l5.23,6.39c.93,1.14,1.8,1.77,2.61,1.89.81.12,1.39-.33,1.76-1.33.02-.06.1-.07.23-.03.13.05.18.1.16.17-.25.68-.5,1.31-.76,1.9-.25.58-.56,1.38-.93,2.38-.2.53-.34.97-.43,1.31-.09.34-.22.75-.39,1.22-.02.04-.09.04-.22,0-.13-.05-.18-.09-.17-.13.16-.43.16-1.01,0-1.74-.15-.74-.44-1.52-.86-2.35s-.96-1.66-1.62-2.49l-5.4-6.71.79-.47h0ZM453.54,322.12l9.33-2.08c1.64-.37,2.76-.72,3.39-1.06.62-.34,1-.68,1.12-1.02.02-.06.1-.07.23-.03.13.05.18.1.16.17-.12.32-.26.64-.41.97s-.3.65-.41.97c-.22.6-.45,1.24-.69,1.92-.24.69-.46,1.34-.67,1.95-.2.61-.37,1.11-.52,1.5-.02.04-.09.04-.21,0-.13-.05-.18-.09-.17-.13.23-.62.15-1.07-.23-1.34-.38-.27-.93-.33-1.65-.15l-8.95,1.93-.31-3.6h0Z"></path>
    <path class="cls-9" d="M442.13,364.18c1.05.58,2.03.81,2.92.66.9-.14,1.58-.65,2.07-1.52.02-.04.09-.03.21.04.12.07.17.12.15.16-.27.5-.57,1-.89,1.51-.32.51-.65,1.07-.99,1.69-.3.54-.57,1.07-.83,1.61-.26.53-.5,1.02-.75,1.45-.02.04-.09.03-.21-.04s-.17-.12-.15-.16c.44-.8.47-1.58.08-2.35-.39-.77-1.11-1.45-2.16-2.04l-8.29-4.59c-1.41-.78-2.47-1.77-3.17-2.96s-1.03-2.5-.98-3.93.49-2.89,1.31-4.37c.8-1.45,1.8-2.59,2.99-3.43s2.48-1.29,3.88-1.35c1.4-.07,2.84.3,4.31,1.12l9.63,5.33c.58.32,1.04.51,1.38.57.34.06.65-.03.93-.28s.58-.67.91-1.27c.03-.06.11-.06.23,0s.16.13.13.19c-.29.52-.62,1.08-1,1.7-.38.62-.77,1.29-1.17,2-.42.75-.79,1.46-1.11,2.11-.32.65-.62,1.23-.9,1.72-.03.06-.11.06-.23,0s-.16-.13-.13-.19c.33-.6.52-1.07.56-1.44.05-.36-.05-.68-.29-.96-.24-.27-.64-.57-1.22-.89l-8.52-4.72c-2.44-1.35-4.48-1.85-6.11-1.48-1.63.37-2.9,1.37-3.8,3-.91,1.65-1.13,3.22-.64,4.71s1.66,2.75,3.53,3.78l8.32,4.6h0Z"></path>
    <path class="cls-9" d="M408.83,381.95c.21-.27.9-.43,2.06-.48,1.17-.05,2.74.01,4.71.2,1.97.19,4.28.47,6.93.84l-1.15,3.08c-3.37-.33-6.13-.52-8.27-.57s-3.82.09-5.03.41c-1.21.32-2.1.84-2.66,1.55-.03.03-.1.01-.2-.07-.11-.08-.15-.14-.12-.18.98-1.25,1.78-2.27,2.39-3.06.62-.79,1.06-1.36,1.34-1.72h0ZM430.46,389.02c-1.29,1.64-2.59,2.69-3.89,3.12-1.31.44-2.49.23-3.57-.61-.68-.53-1.19-1.2-1.54-2.01s-.55-1.67-.6-2.58c-.05-.92.07-1.82.34-2.72s.69-1.71,1.24-2.42c.2-.25.4-.5.6-.77s.4-.49.58-.69l-6.22-4.87c-.52-.4-.95-.67-1.29-.79-.34-.12-.66-.08-.96.12s-.67.57-1.1,1.13c-.03.03-.1.01-.2-.07-.11-.08-.15-.14-.12-.18.36-.47.78-.98,1.24-1.54s.97-1.18,1.5-1.86c.5-.64.97-1.26,1.41-1.86.44-.6.84-1.13,1.2-1.59.04-.05.12-.04.22.05.11.08.14.15.1.21-.43.55-.71,1-.83,1.34-.12.34-.08.66.11.97.19.31.55.67,1.07,1.07l12.42,9.72c.52.4.94.67,1.27.78.33.11.65.07.96-.12.31-.19.68-.57,1.11-1.12.03-.04.1-.01.2.07.11.08.15.14.12.18-.36.47-.78.97-1.26,1.52-.47.55-.96,1.15-1.47,1.79-.42.54-.85,1.14-1.29,1.82-.44.68-.9,1.31-1.36,1.9h0ZM424.4,387.65c1.06.83,1.95,1.35,2.67,1.57.72.22,1.33.22,1.83,0,.5-.21.94-.56,1.32-1.05.32-.41.52-.78.59-1.11.07-.33.02-.65-.15-.96s-.47-.63-.88-.95l-5.37-4.2c-.23.22-.47.47-.71.74-.24.27-.45.52-.61.73-.74.95-1.03,1.8-.88,2.56.16.76.89,1.65,2.19,2.67h0Z"></path>
    <path class="cls-9" d="M398.85,422.71s-.12.02-.21-.08c-.1-.1-.12-.17-.07-.22.61-.58.93-1.39.96-2.42.03-1.04-.21-2.15-.73-3.35l-7.07-16.52c-.05-.08,0-.2.17-.35.16-.15.28-.21.38-.17l19.01,7.33c.83.31,1.53.47,2.11.48.58.01,1.06-.16,1.43-.52.05-.05.12-.02.21.08.09.1.12.17.07.22-.2.19-.36.32-.48.41s-.28.21-.48.39c-.2.17-.5.45-.91.85-.92.88-1.66,1.6-2.23,2.15-.57.56-1.02,1.02-1.37,1.38-.35.36-.65.67-.91.92-.05.05-.12.02-.21-.08-.1-.1-.12-.17-.07-.22.71-.67.99-1.32.84-1.93-.15-.61-.7-1.11-1.65-1.48l-13.61-5.27-.77-3.13,6.31,14.89c.47,1.09,1.1,1.78,1.87,2.08s1.56.06,2.37-.71c.05-.05.12-.02.21.08.1.1.12.17.07.22-.48.46-.94.87-1.39,1.26-.45.38-1.03.91-1.74,1.59-.46.44-.82.81-1.09,1.11-.26.3-.6.64-1.01,1.04h0Z"></path>
    <path class="cls-9" d="M363.48,422.63l12.28-8.72c.06-.04.12,0,.2.11.08.11.09.19.03.23-.57.41-.97.76-1.18,1.05-.21.29-.27.61-.16.95.1.34.35.78.73,1.32l9.13,12.86c.38.54.71.91,1,1.11.28.2.6.26.95.16.35-.1.81-.35,1.39-.75.06-.04.12,0,.2.11s.09.19.03.23l-11.78,8.36c-.18.13-.34.11-.46-.05l-2.68-3.66s0-.1.08-.18.16-.11.23-.08c1.07.88,2.14,1.33,3.21,1.34,1.07,0,2.17-.39,3.32-1.21l.83-.59c.37-.26.64-.53.81-.81.17-.27.23-.56.18-.86-.05-.3-.19-.62-.43-.95l-9.03-12.72c-.25-.35-.51-.62-.77-.79s-.53-.25-.79-.23c-.26.02-.54.13-.84.35l-.92.65c-1.44,1.03-2.39,2.14-2.84,3.36-.45,1.21-.44,2.58.04,4.11.02.07-.03.13-.15.17s-.2.05-.22.01c-.31-.59-.69-1.27-1.16-2.04-.47-.77-.92-1.47-1.37-2.1-.2-.28-.16-.51.12-.71h0ZM369.44,427.72c.54.76,1.25,1.15,2.13,1.18s1.88-.35,2.99-1.14l3.75-2.66.55.78-3.78,2.68c-1.09.77-1.78,1.55-2.08,2.34-.3.78-.21,1.49.25,2.14.04.06,0,.12-.09.19-.1.07-.17.08-.21.03-.44-.61-.77-1.09-1-1.44-.23-.35-.48-.71-.74-1.08-.33-.46-.67-.91-1.01-1.33-.34-.42-.71-.91-1.09-1.44-.03-.04.02-.1.13-.17.11-.08.18-.1.2-.06h0Z"></path>
    <path class="cls-9" d="M343.63,433.93c.65-.33,1.48-.71,2.48-1.14,1-.43,1.91-.85,2.72-1.26.73-.37,1.42-.73,2.08-1.09s1.25-.67,1.78-.94c.04-.02.09.03.15.15.06.12.07.19.03.21-.63.32-1.07.61-1.34.87-.26.26-.37.57-.33.93.04.36.21.83.51,1.42l7.12,14.07c.3.59.57,1,.82,1.24.25.24.56.34.93.29.37-.05.86-.23,1.47-.53.06-.03.12.01.18.13.06.12.06.2,0,.23-.53.27-1.12.55-1.78.85-.66.3-1.37.64-2.12,1.02-.73.37-1.52.8-2.36,1.29s-1.58.9-2.21,1.21c-2.11,1.07-4.15,1.59-6.12,1.57-1.97-.02-3.75-.51-5.32-1.47-1.58-.96-2.81-2.31-3.69-4.05-.77-1.52-1.2-3.02-1.3-4.52-.09-1.49.11-2.91.6-4.24s1.23-2.54,2.2-3.61c.97-1.08,2.13-1.96,3.49-2.65h0ZM344.29,434.47c-1.28.65-2.24,1.55-2.9,2.71-.66,1.16-.95,2.52-.87,4.09s.58,3.27,1.52,5.11c.87,1.72,1.93,3.15,3.16,4.28,1.24,1.13,2.54,1.87,3.9,2.21,1.37.34,2.71.17,4.03-.49,1.18-.6,1.96-1.13,2.35-1.61.39-.48.38-1.14-.04-1.97l-6.92-13.68c-.38-.75-.86-1.21-1.44-1.37-.58-.17-1.51.08-2.79.72h0Z"></path>
    <path class="cls-9" d="M300.74,451.13c-.11.03-.18-.01-.22-.14-.04-.13,0-.21.1-.25.65-.21,1.33-.4,2.05-.58.72-.18,1.4-.38,2.05-.58.74-.24,1.37-.46,1.89-.68s1.13-.43,1.8-.65c.09-.03.15.02.19.15s.02.21-.07.24c-.89.28-1.34.63-1.37,1.03-.03.4.4,1.04,1.28,1.93l10.75,10.9-.7,3.3,1.9-16.31c.17-1.48-.15-2.52-.95-3.09s-1.81-.67-3.02-.28c-.11.03-.18-.01-.23-.14-.04-.13,0-.21.1-.25.65-.21,1.25-.38,1.81-.51.55-.13,1.24-.33,2.06-.59.84-.27,1.51-.51,2.01-.71.49-.21,1.11-.43,1.85-.66.09-.03.15.02.19.15.04.13.02.21-.07.24-.58.19-1.05.47-1.39.86s-.62.97-.83,1.77c-.21.8-.39,1.88-.54,3.27l-2.08,17.73c0,.07-.09.14-.26.21-.17.07-.28.06-.33-.02l-13.22-13.36c-.84-.85-1.55-1.51-2.12-1.99s-1.06-.78-1.48-.92c-.41-.14-.8-.16-1.14-.05h0ZM319.91,455.26l-.2,1.06-6.68,2.14-.52-.84,7.4-2.37h0Z"></path>
  </g>
  <path class="cls-2" d="M0,248.49c0,137.02,111.47,248.49,248.49,248.49s248.49-111.47,248.49-248.49S385.51,0,248.49,0,0,111.47,0,248.49ZM489.99,248.49c0,133.16-108.33,241.49-241.49,241.49S7,381.65,7,248.49,115.34,7,248.49,7s241.49,108.33,241.49,241.49Z"></path>
</svg><style>@media (prefers-color-scheme: light) { :root { filter: none; } }
@media (prefers-color-scheme: dark) { :root { filter: none; } }
</style></svg>